<svg xmlns="http://www.w3.org/2000/svg" width="25.678" height="25.678" viewBox="0 0 25.678 25.678">
  <path id="_1st" data-name="1st" d="M22.927,0H2.751A2.663,2.663,0,0,0,0,2.407V23.271a2.663,2.663,0,0,0,2.751,2.407H22.927a2.663,2.663,0,0,0,2.751-2.407V2.407A2.663,2.663,0,0,0,22.927,0ZM7.337,21.827a.745.745,0,0,1-.734.642H4.4a.745.745,0,0,1-.734-.642V19.9a.745.745,0,0,1,.734-.642H6.6a.745.745,0,0,1,.734.642Zm0-6.42a.745.745,0,0,1-.734.642H4.4a.745.745,0,0,1-.734-.642V13.481a.745.745,0,0,1,.734-.642H6.6a.745.745,0,0,1,.734.642Zm7.337,6.42a.745.745,0,0,1-.734.642h-2.2a.745.745,0,0,1-.734-.642V19.9a.745.745,0,0,1,.734-.642h2.2a.745.745,0,0,1,.734.642Zm0-6.42a.745.745,0,0,1-.734.642h-2.2a.745.745,0,0,1-.734-.642V13.481a.745.745,0,0,1,.734-.642h2.2a.745.745,0,0,1,.734.642Zm7.337,6.42a.745.745,0,0,1-.734.642h-2.2a.745.745,0,0,1-.734-.642V13.481a.745.745,0,0,1,.734-.642h2.2a.745.745,0,0,1,.734.642Zm0-12.839a.745.745,0,0,1-.734.642H4.4a.745.745,0,0,1-.734-.642V3.852A.745.745,0,0,1,4.4,3.21H21.276a.745.745,0,0,1,.734.642Z" fill="#979797"/>
</svg>
