<svg xmlns="http://www.w3.org/2000/svg" width="37.672" height="26.371" viewBox="0 0 37.672 26.371">
  <g id="_3rd" data-name="3rd" transform="translate(-2.5 -6.25)">
    <path id="Path_745" data-name="Path 745" d="M19.418,29.453V21.918h5.651L17.534,12.5,10,21.918h5.651v7.534Z" transform="translate(3.802 3.168)" fill="#979797"/>
    <path id="Path_746" data-name="Path 746" d="M11.918,32.621h3.767V28.853H11.918A5.658,5.658,0,0,1,6.267,23.2,6.129,6.129,0,0,1,11.3,17.523l1.094-.192.362-1.051a8.916,8.916,0,0,1,8.578-6.263,9.429,9.429,0,0,1,9.418,9.418v1.884h1.884a3.767,3.767,0,1,1,0,7.534H26.987v3.767h5.651a7.536,7.536,0,0,0,1.778-14.858A13.2,13.2,0,0,0,21.336,6.25,12.7,12.7,0,0,0,9.577,14.067,9.883,9.883,0,0,0,2.5,23.2,9.429,9.429,0,0,0,11.918,32.621Z" transform="translate(0)" fill="#979797"/>
  </g>
</svg>
