<svg xmlns="http://www.w3.org/2000/svg" width="27.104" height="27.104" viewBox="0 0 27.104 27.104">
  <path id="_4" data-name="4" d="M2.256,15.808H11.29A1.506,1.506,0,0,0,12.8,14.3V2.256A1.506,1.506,0,0,0,11.29.75H2.256A1.506,1.506,0,0,0,.75,2.256V14.3a1.506,1.506,0,0,0,1.506,1.506ZM.75,26.348a1.506,1.506,0,0,0,1.506,1.506H11.29A1.506,1.506,0,0,0,12.8,26.348V20.325a1.506,1.506,0,0,0-1.506-1.506H2.256A1.506,1.506,0,0,0,.75,20.325Zm15.058,0a1.506,1.506,0,0,0,1.506,1.506h9.035a1.506,1.506,0,0,0,1.506-1.506V15.808A1.506,1.506,0,0,0,26.348,14.3H17.314a1.506,1.506,0,0,0-1.506,1.506ZM17.314,11.29h9.035a1.506,1.506,0,0,0,1.506-1.506V2.256A1.506,1.506,0,0,0,26.348.75H17.314a1.506,1.506,0,0,0-1.506,1.506V9.785a1.506,1.506,0,0,0,1.506,1.506Z" transform="translate(-0.75 -0.75)" fill="#979797"/>
</svg>
