<svg xmlns="http://www.w3.org/2000/svg" width="27.976" height="25.178" viewBox="0 0 27.976 25.178">
  <g id="bx_detail" transform="translate(-2.5 -3.75)">
    <path id="Path_743" data-name="Path 743" d="M27.678,3.75H5.3a2.8,2.8,0,0,0-2.8,2.8V26.131a2.8,2.8,0,0,0,2.8,2.8H27.678a2.8,2.8,0,0,0,2.8-2.8V6.548A2.8,2.8,0,0,0,27.678,3.75ZM5.3,26.131V6.548H27.678l0,19.583Z" transform="translate(0)" fill="#446e61"/>
    <path id="Path_744" data-name="Path 744" d="M7.5,8.75H24.286v2.8H7.5Zm0,5.6H24.286v2.8H7.5Zm0,5.6h8.393v2.8H7.5Z" transform="translate(0.595 0.595)" fill="#446e61"/>
  </g>
</svg>
