<svg xmlns="http://www.w3.org/2000/svg" width="25" height="25" viewBox="0 0 25 25">
  <g id="Group_19" data-name="Group 19" transform="translate(-15 -156)">
    <g id="Ellipse_46" data-name="Ellipse 46" transform="translate(15 156)" fill="#446e61" stroke="#446e61" stroke-width="1">
      <circle cx="12.5" cy="12.5" r="12.5" stroke="none"/>
      <circle cx="12.5" cy="12.5" r="12" fill="none"/>
    </g>
    <path id="Icon_material-work" data-name="Icon material-work" d="M14.69,5.6h-2.6V4.3a1.294,1.294,0,0,0-1.3-1.3H8.2A1.294,1.294,0,0,0,6.9,4.3V5.6H4.3A1.289,1.289,0,0,0,3.006,6.9L3,14.04a1.294,1.294,0,0,0,1.3,1.3H14.69a1.294,1.294,0,0,0,1.3-1.3V6.9A1.294,1.294,0,0,0,14.69,5.6Zm-3.9,0H8.2V4.3h2.6Z" transform="translate(18 159)" fill="#fff"/>
  </g>
</svg>
