<svg xmlns="http://www.w3.org/2000/svg" width="25" height="25" viewBox="0 0 25 25">
  <g id="Group_19" data-name="Group 19" transform="translate(-15 -156)">
    <g id="Ellipse_46" data-name="Ellipse 46" transform="translate(15 156)" fill="#446e61" stroke="#446e61" stroke-width="1">
      <circle cx="12.5" cy="12.5" r="12.5" stroke="none"/>
      <circle cx="12.5" cy="12.5" r="12" fill="none"/>
    </g>
    <path id="Icon_ionic-ios-call" data-name="Icon ionic-ios-call" d="M16.251,13.985a10.172,10.172,0,0,0-2.125-1.422c-.637-.306-.87-.3-1.321.025-.375.271-.618.523-1.05.429a6.263,6.263,0,0,1-2.109-1.561A6.218,6.218,0,0,1,8.085,9.347c-.091-.435.161-.675.429-1.05.325-.451.334-.684.025-1.321A9.971,9.971,0,0,0,7.118,4.851c-.463-.463-.567-.363-.823-.271a4.682,4.682,0,0,0-.753.4,2.273,2.273,0,0,0-.9.955c-.18.388-.388,1.11.672,3A16.712,16.712,0,0,0,8.246,12.85h0l0,0,0,0h0a16.777,16.777,0,0,0,3.919,2.938c1.885,1.059,2.607.851,3,.672a2.234,2.234,0,0,0,.955-.9,4.682,4.682,0,0,0,.4-.753C16.613,14.552,16.717,14.448,16.251,13.985Z" transform="translate(16.981 157.497)" fill="#fff"/>
  </g>
</svg>
