<svg xmlns="http://www.w3.org/2000/svg" width="25" height="25" viewBox="0 0 25 25">
  <g id="Group_19" data-name="Group 19" transform="translate(-15 -156)">
    <g id="Ellipse_46" data-name="Ellipse 46" transform="translate(15 156)" fill="#446e61" stroke="#446e61" stroke-width="1">
      <circle cx="12.5" cy="12.5" r="12.5" stroke="none"/>
      <circle cx="12.5" cy="12.5" r="12" fill="none"/>
    </g>
    <path id="Icon_ionic-ios-settings" data-name="Icon ionic-ios-settings" d="M16.465,11.021a1.678,1.678,0,0,1,1.077-1.566,6.652,6.652,0,0,0-.8-1.939,1.7,1.7,0,0,1-.683.146A1.674,1.674,0,0,1,14.522,5.3a6.632,6.632,0,0,0-1.936-.8,1.677,1.677,0,0,1-3.131,0,6.652,6.652,0,0,0-1.939.8A1.674,1.674,0,0,1,5.984,7.662,1.645,1.645,0,0,1,5.3,7.516a6.8,6.8,0,0,0-.8,1.943,1.678,1.678,0,0,1,0,3.131,6.652,6.652,0,0,0,.8,1.939A1.675,1.675,0,0,1,7.519,16.74a6.691,6.691,0,0,0,1.939.8,1.674,1.674,0,0,1,3.125,0,6.652,6.652,0,0,0,1.939-.8,1.677,1.677,0,0,1,2.211-2.211,6.691,6.691,0,0,0,.8-1.939A1.686,1.686,0,0,1,16.465,11.021Zm-5.414,2.714a2.717,2.717,0,1,1,2.717-2.717A2.716,2.716,0,0,1,11.051,13.734Z" transform="translate(16.5 157.5)" fill="#fff"/>
  </g>
</svg>
