<svg xmlns="http://www.w3.org/2000/svg" width="25" height="25" viewBox="0 0 25 25">
  <g id="Group_19" data-name="Group 19" transform="translate(-15 -156)">
    <g id="Ellipse_46" data-name="Ellipse 46" transform="translate(15 156)" fill="#446e61" stroke="#446e61" stroke-width="1">
      <circle cx="12.5" cy="12.5" r="12.5" stroke="none"/>
      <circle cx="12.5" cy="12.5" r="12" fill="none"/>
    </g>
    <g id="about" transform="translate(9.941 151)">
      <path id="Path_749" data-name="Path 749" d="M25.3,22.533a3.61,3.61,0,0,1,.1.516,5.025,5.025,0,0,1,.038.617,3.46,3.46,0,0,1-.046.585,1.067,1.067,0,0,1-.14.413.73.73,0,0,1-.356.184,6.624,6.624,0,0,1-.739.166c-.3.052-.621.1-.976.146s-.714.083-1.075.113-.709.056-1.045.077-.631.03-.885.03-.545-.011-.876-.03-.673-.047-1.028-.077-.706-.064-1.053-.1-.662-.077-.953-.122-.532-.091-.73-.137a1.144,1.144,0,0,1-.374-.13,1.231,1.231,0,0,1-.2-.639,5.053,5.053,0,0,1,.047-1.372,1.077,1.077,0,0,1,.389-.73,2.652,2.652,0,0,1,.739-.4c.284-.1.578-.19.876-.265a2.649,2.649,0,0,0,.8-.344,2.424,2.424,0,0,0,.419-.336,1.154,1.154,0,0,0,.213-.3.778.778,0,0,0,.069-.32c0-.111-.006-.237-.016-.38a.751.751,0,0,0-.213-.48c-.122-.115-.254-.231-.4-.342a.8.8,0,0,1-.19-.259,3.452,3.452,0,0,1-.146-.336q-.061-.184-.122-.41a.831.831,0,0,1-.182-.093.805.805,0,0,1-.16-.184,1.291,1.291,0,0,1-.16-.336.932.932,0,0,1-.061-.4.875.875,0,0,1,.077-.312.951.951,0,0,1,.166-.273,6.781,6.781,0,0,1,.047-.989,7.4,7.4,0,0,1,.19-.891,2.792,2.792,0,0,1,.4-.862,2.361,2.361,0,0,1,.549-.593,2.826,2.826,0,0,1,.623-.359,2.951,2.951,0,0,1,.64-.176,4.407,4.407,0,0,1,.609-.046,2.947,2.947,0,0,1,1.389.32,2.757,2.757,0,0,1,.9.684,2.794,2.794,0,0,1,.5.923,7.477,7.477,0,0,1,.235.951,5.876,5.876,0,0,1,.061,1.036.62.62,0,0,1,.137.166,1.361,1.361,0,0,1,.083.237.911.911,0,0,1,.008.356,1.231,1.231,0,0,1-.122.443,1.116,1.116,0,0,1-.184.259.5.5,0,0,1-.243.14q-.061.228-.122.41a2.279,2.279,0,0,1-.154.336.71.71,0,0,1-.2.243c-.082.071-.155.133-.223.182a1.333,1.333,0,0,0-.176.16.764.764,0,0,0-.129.19,1.1,1.1,0,0,0-.086.261,2.138,2.138,0,0,0-.022.4,1,1,0,0,0,.1.4,1.188,1.188,0,0,0,.3.383,1.8,1.8,0,0,0,.573.319,4.712,4.712,0,0,0,.706.237,7.042,7.042,0,0,1,.747.235,2.56,2.56,0,0,1,.64.35,1.129,1.129,0,0,1,.414.549m-8.123-2.8a1.056,1.056,0,0,1-.077.259.563.563,0,0,1-.213.2,4.06,4.06,0,0,1-.852.4q-.459.153-.877.336a2.54,2.54,0,0,0-.73.48,1.4,1.4,0,0,0-.389.844,3.12,3.12,0,0,0-.038.33c0,.107-.013.206-.022.3-.011.019-.022.039-.031.053s-.019.031-.03.053c-.4-.031-.8-.066-1.205-.107s-.78-.088-1.119-.137-.628-.1-.862-.154a1.177,1.177,0,0,1-.443-.151,1.085,1.085,0,0,1-.206-.639,5.205,5.205,0,0,1,.053-1.386,1.111,1.111,0,0,1,.386-.723,2.4,2.4,0,0,1,.741-.4c.284-.1.574-.187.876-.267a3.043,3.043,0,0,0,.8-.336,2.612,2.612,0,0,0,.421-.333.974.974,0,0,0,.206-.314.9.9,0,0,0,.06-.326c0-.111,0-.232-.016-.366a.75.75,0,0,0-.206-.48c-.118-.116-.245-.235-.389-.356a.6.6,0,0,1-.206-.243,3.453,3.453,0,0,1-.146-.336q-.061-.184-.122-.41a.95.95,0,0,1-.184-.091.89.89,0,0,1-.16-.184,1.569,1.569,0,0,1-.16-.336.995.995,0,0,1,.017-.731.737.737,0,0,1,.166-.273,6.365,6.365,0,0,1,.046-.989,6.545,6.545,0,0,1,.2-.885,2.754,2.754,0,0,1,.413-.852,2.361,2.361,0,0,1,.549-.593,2.9,2.9,0,0,1,.617-.359,2.794,2.794,0,0,1,.632-.176A3.927,3.927,0,0,1,15.3,10a2.9,2.9,0,0,1,1.372.32,2.936,2.936,0,0,1,.917.686,1.316,1.316,0,0,1,.25.479c.036.148.083.319.146.51a2.94,2.94,0,0,0-.617.5,5.752,5.752,0,0,0-.573.662,3.139,3.139,0,0,0-.457.945,8.985,8.985,0,0,0-.229.959,7.83,7.83,0,0,0-.075,1.066.962.962,0,0,0-.184.3,1.191,1.191,0,0,0-.016.808,1.536,1.536,0,0,0,.166.4,1.443,1.443,0,0,0,.169.213.482.482,0,0,0,.184.122c.041.162.082.315.122.457.041.121.088.245.143.374a.717.717,0,0,0,.207.281c.071.06.126.111.166.152a1,1,0,0,1,.1.113.3.3,0,0,1,.046.146,1.579,1.579,0,0,0,.038.243" fill="#fff"/>
    </g>
  </g>
</svg>
