<svg xmlns="http://www.w3.org/2000/svg" width="176.737" height="87.621" viewBox="0 0 176.737 87.621">
  <g id="Home-Logo-2-of-5-Lien-O-Matic" transform="translate(0 1972.668)">
    <path id="Path_772" data-name="Path 772" d="M1389.757-1972.629c-.2.023-.964.031-1.711.023s-1.5,0-1.675.017a1.325,1.325,0,0,0-1.3,1.271c-.058.422-.058,11.425,0,11.923a1.217,1.217,0,0,0,.862,1.187,11.053,11.053,0,0,0,2.338.089c2.75.022,2.693.022,2.977-.058a3.281,3.281,0,0,0,1.849-1.578,4.691,4.691,0,0,1,2.857-2.16,4.969,4.969,0,0,1,3.453.409,5.836,5.836,0,0,1,2.893,3.329,29.536,29.536,0,0,1,.924,3.484c.386,1.737.427,1.88.6,2.031s.329.182,1.218.276a38.713,38.713,0,0,0,4.155.066c3.768-.013,6.59-.075,6.932-.146a.674.674,0,0,0,.551-.475c.04-.116.2-.862.355-1.662a15.61,15.61,0,0,1,1.271-4.28,5.443,5.443,0,0,1,4.089-3.377,19.983,19.983,0,0,1,6.795.626,26.231,26.231,0,0,1,7.048,2.955,7.931,7.931,0,0,0,2.253,1.115l.257.023.027-.156a5.284,5.284,0,0,0-.818-2.52,20.536,20.536,0,0,0-5.5-6.684,26.284,26.284,0,0,0-6.444-3.875c-3.151-1.267-5.884-1.724-10.8-1.8a83.943,83.943,0,0,0-9.795.475c-2.009.182-2.622.342-3.466.9a7.918,7.918,0,0,0-1.3,1.24,5.3,5.3,0,0,1-1.529,1.151,3.368,3.368,0,0,1-1.711.4,3.95,3.95,0,0,1-1.889-.457,5.274,5.274,0,0,1-2.022-1.822,4.955,4.955,0,0,0-1.987-1.778A3.544,3.544,0,0,0,1389.757-1972.629Z" transform="translate(-1323.475)" fill="#fff"/>
    <path id="Path_773" data-name="Path 773" d="M157.956-1843.364a2.154,2.154,0,0,0-1.778,1.68,2.185,2.185,0,0,0,.564,1.933,2.181,2.181,0,0,0,2.5.409,2.726,2.726,0,0,0,.871-.813,2.248,2.248,0,0,0-.027-2.227,2.724,2.724,0,0,0-.787-.75A2.5,2.5,0,0,0,157.956-1843.364Z" transform="translate(-149.197 -123.541)" fill="#fff"/>
    <path id="Path_774" data-name="Path 774" d="M3727-1843.443a2.136,2.136,0,0,0-1.2,3.617,2.108,2.108,0,0,0,2.972.044,2,2,0,0,0,.663-1.524,1.987,1.987,0,0,0-.538-1.444A2.155,2.155,0,0,0,3727-1843.443Z" transform="translate(-3559.631 -123.462)" fill="#fff"/>
    <path id="Path_775" data-name="Path 775" d="M454.213-1810.772a2.176,2.176,0,0,0-1.733,1.791,2.142,2.142,0,0,0,1.409,2.333,2.167,2.167,0,0,0,1.667-.106,2.125,2.125,0,0,0,.942-2.858,2.167,2.167,0,0,0-1.573-1.164A1.671,1.671,0,0,0,454.213-1810.772Z" transform="translate(-432.348 -154.662)" fill="#fff"/>
    <path id="Path_776" data-name="Path 776" d="M3430.822-1810.521a2.114,2.114,0,0,0-1.822,2.111,2,2,0,0,0,.59,1.471,2.13,2.13,0,0,0,3.609-.947A2.137,2.137,0,0,0,3430.822-1810.521Z" transform="translate(-3276.616 -154.917)" fill="#fff"/>
    <path id="Path_777" data-name="Path 777" d="M751.215-1783.851a2.178,2.178,0,0,0-1.476,1.387,2.18,2.18,0,0,0,.6,2.258,2.118,2.118,0,0,0,2.946-.089,2.133,2.133,0,0,0,.418-2.417,2.584,2.584,0,0,0-.947-.982A2.31,2.31,0,0,0,751.215-1783.851Z" transform="translate(-716.325 -180.361)" fill="#fff"/>
    <path id="Path_778" data-name="Path 778" d="M3133.644-1783.661a2.924,2.924,0,0,0-.475.2,2.776,2.776,0,0,0-.876.942,2.127,2.127,0,0,0,.475,2.471,2.063,2.063,0,0,0,1.64.573,2.112,2.112,0,0,0,1.942-2.12,2.15,2.15,0,0,0-1.364-2A2.751,2.751,0,0,0,3133.644-1783.661Z" transform="translate(-2992.899 -180.556)" fill="#fff"/>
    <path id="Path_779" data-name="Path 779" d="M1048.732-1763.615a2.342,2.342,0,0,0-1.022.556,2.128,2.128,0,0,0,.555,3.475,1.4,1.4,0,0,0,.907.169,1.417,1.417,0,0,0,.9-.165,2.11,2.11,0,0,0,1.231-1.924,2.322,2.322,0,0,0-.218-.991,2.359,2.359,0,0,0-1.182-1.036A2.856,2.856,0,0,0,1048.732-1763.615Z" transform="translate(-1000.511 -199.736)" fill="#fff"/>
    <path id="Path_780" data-name="Path 780" d="M2836.613-1763.892a2.121,2.121,0,0,0-1.613,2.066,2.1,2.1,0,0,0,1.222,1.947,1.542,1.542,0,0,0,.777.182,1.754,1.754,0,0,0,.747-.076,2.132,2.132,0,0,0,1.453-2.551A2.156,2.156,0,0,0,2836.613-1763.892Z" transform="translate(-2709.013 -199.441)" fill="#fff"/>
    <path id="Path_781" data-name="Path 781" d="M2.073-1598.859a1.294,1.294,0,0,0-.929.791.94.94,0,0,0-.089.578,1.2,1.2,0,0,0,.369.871c.356.351.187.32,4.4.862a642.2,642.2,0,0,0,67.5,4.982c9.35.213,21.14.231,30.13.044a642.218,642.218,0,0,0,71.192-5.248,11.361,11.361,0,0,0,2.346-.378,1.654,1.654,0,0,0,.6-.613,1.457,1.457,0,0,0,.018-1.142,1.52,1.52,0,0,0-.6-.622c-.373-.191-.467-.191-2.071.027a666.609,666.609,0,0,1-107.464,5.11,634.245,634.245,0,0,1-63.5-5.088c-.911-.124-1.671-.222-1.689-.217S2.179-1598.881,2.073-1598.859Z" transform="translate(-1.002 -357.155)" fill="#fff"/>
    <path id="Path_782" data-name="Path 782" d="M0-1437.945v23.06l.431-.062c1.342-.187,5.448-.715,7.715-1l2.609-.324v-5.582h-.111c-.129,0-5.364.475-5.675.515l-.213.031v-39.072l-.142-.022c-.2-.031-4.537-.6-4.577-.6C.013-1461,0-1450.623,0-1437.945Z" transform="translate(0 -488.929)" fill="#fff"/>
    <path id="Path_783" data-name="Path 783" d="M3679.691-1453.846a6.229,6.229,0,0,0-3.5,1.724c-1.76,1.733-2.662,4.271-2.959,8.319-.151,2.035-.168,3.475-.151,14.11.018,9.332.027,10.563.093,11.163a17.251,17.251,0,0,0,1.609,6.19,6.5,6.5,0,0,0,5.066,3.826,7.117,7.117,0,0,0,2.021-.04c1.8-.378,2.92-1.546,3.733-3.906a15.142,15.142,0,0,0,.707-3.213,60.917,60.917,0,0,0,.271-7.848v-3.693l-.831-.027c-.462-.018-1.5-.044-2.311-.058l-1.47-.031-.022,4.417a40.544,40.544,0,0,1-.191,5.95c-.191,1.449-.556,2.262-1.152,2.555a1.143,1.143,0,0,1-.577.089,1.161,1.161,0,0,1-.653-.124c-.7-.347-1.1-1.142-1.32-2.68-.2-1.391-.2-1.311-.2-14.083,0-12.6,0-12.555.187-13.865.271-1.933.889-2.889,1.928-2.982.845-.08,1.4.471,1.663,1.658.271,1.213.333,2.5.333,6.844v3.48h.258c.561,0,4.04-.093,4.178-.115l.151-.023-.022-4.23a41.047,41.047,0,0,0-.213-6.03c-.347-2.822-1.138-4.893-2.342-6.142a4.153,4.153,0,0,0-2.244-1.253A6.783,6.783,0,0,0,3679.691-1453.846Z" transform="translate(-3509.843 -495.683)" fill="#fff"/>
    <path id="Path_784" data-name="Path 784" d="M308-1400.669v21.336l.147-.027c.076-.014,1.053-.125,2.164-.245s2.106-.231,2.213-.249l.187-.022v-20.82c0-20.024,0-20.815-.08-20.815-.044,0-1.062-.111-2.262-.245s-2.226-.244-2.275-.244H308Z" transform="translate(-294.313 -526.196)" fill="#fff"/>
    <path id="Path_785" data-name="Path 785" d="M3468.511-1411.269c-1.2.129-2.254.231-2.342.236H3466v20.375c0,11.558.018,20.376.04,20.376.053,0,3.311.338,4.044.422a5.787,5.787,0,0,0,.614.048c.009,0,.009-9.39,0-20.851l-.013-20.838Z" transform="translate(-3311.972 -536.23)" fill="#fff"/>
    <path id="Path_786" data-name="Path 786" d="M524-1379v20.309l1.48-.146c1.8-.178,7.519-.7,8.488-.778l.7-.053v-5.048h-.111c-.129,0-3.155.191-4.551.289-.524.036-1.026.067-1.124.067h-.169v-12.608l.409-.031c.222-.013,1.44-.027,2.711-.027h2.3v-4.964l-1.3-.027c-.715-.018-1.755-.031-2.306-.031s-1.187-.013-1.409-.027l-.409-.031v-11.554l.369.031c.569.044,5.106.338,5.244.338h.12v-5.048l-.92-.076c-2.04-.173-7.119-.644-9.244-.857l-.28-.031Z" transform="translate(-500.714 -547.887)" fill="#fff"/>
    <path id="Path_787" data-name="Path 787" d="M3145.754-1393.906c-1.742.173-10.421.929-10.674.929-.076,0-.08.151-.08,2.506v2.511l.3-.022c.391-.027,3.2-.2,3.279-.2.054,0,.062,2.511.062,16.8,0,16.678,0,16.8.089,16.8.111,0,4.075.347,4.39.382l.231.026v-17.158c0-9.435.013-17.158.036-17.158s.738-.049,1.6-.111,1.644-.111,1.724-.111h.147V-1394l-.143,0C3146.643-1393.991,3146.208-1393.951,3145.754-1393.906Z" transform="translate(-2995.682 -552.952)" fill="#fff"/>
    <path id="Path_788" data-name="Path 788" d="M849-1350.989v19.011l.391-.031c.213-.018,1.115-.085,2.009-.146s1.707-.129,1.813-.142l.187-.022v-6.431c0-6.026-.009-6.733-.133-11.23-.071-2.64-.133-4.96-.129-5.155v-.355l.622,2.11c2.76,9.373,6.1,20.514,6.177,20.594.036.036,2.164-.058,3.031-.137l.3-.027v-36.116h-.142c-.08,0-.955-.049-1.947-.111s-1.875-.111-1.964-.111h-.169v6.23c0,6.222,0,6.244.156,10.745.084,2.48.156,4.6.151,4.71,0,.178,0,.187-.044.089-.147-.36-4.035-13.47-5.924-19.967-.351-1.222-.649-2.227-.658-2.235s-3.462-.284-3.644-.284C849-1370,849-1369.067,849-1350.989Z" transform="translate(-811.271 -575.885)" fill="#fff"/>
    <path id="Path_789" data-name="Path 789" d="M2776.52-1360.924c-.453.031-1.728.115-2.835.187s-2.022.138-2.035.151-.351,2.72-.756,6.013c-.956,7.83-1.822,14.9-2.866,23.3-.462,3.746-.84,6.822-.831,6.826s.782.058,1.724.111l2.244.129a3.374,3.374,0,0,0,.561.009c.013-.013.173-1.458.351-3.2s.338-3.2.356-3.213c.031-.035,4.461.12,4.866.174l.177.022.369,3.315c.2,1.827.378,3.328.386,3.338s.649.062,1.431.12l2.155.16a4.586,4.586,0,0,0,.778.022c.031-.027-1.5-12.39-2.88-23.269-1.04-8.235-1.773-13.981-1.8-14.123l-.027-.142-.276,0C2777.467-1360.991,2776.973-1360.96,2776.52-1360.924Zm-1.044,12.59c1.106,9.834,1.489,13.239,1.489,13.3a8.735,8.735,0,0,1-2.026,0c-1.115-.027-2.035-.058-2.044-.071s.04-.586.116-1.28.5-4.83.955-9.185.835-7.95.853-7.977.049.022.071.124S2775.173-1351.036,2775.476-1348.334Z" transform="translate(-2644.223 -584.485)" fill="#fff"/>
    <path id="Path_790" data-name="Path 790" d="M2251.087-1342.933c-.614.031-1.881.089-2.823.129s-1.715.084-1.724.093-.373,2.222-.813,4.92c-2.115,13.021-3.347,20.513-3.378,20.54-.013.014-.218-1.1-.458-2.475-1.183-6.773-3.982-22.714-3.995-22.722s-.64.009-1.409.027-2.093.053-2.942.067l-1.547.031v34.245l.9.026c.493.013,1.431.036,2.088.053l1.187.026v-6.995c0-5.942-.058-12.523-.146-16.647a4.606,4.606,0,0,1,.013-.822c.018.018.156.734.307,1.591s.956,5.346,1.782,9.977,1.679,9.412,1.893,10.625l.391,2.209.8.027c.44.018,1.279.049,1.866.067s1.075.031,1.088.022c.022-.026,1.921-11.168,3.654-21.478.538-3.2.546-3.257.56-2.822.008.24-.027,3.151-.08,6.461-.059,4.1-.089,7.964-.089,12.1v6.079h.191c.1,0,1.027.04,2.054.089s1.893.089,1.924.089.053-3.591.053-17.8V-1343l-.12,0C2252.251-1342.991,2251.7-1342.96,2251.087-1342.933Z" transform="translate(-2132.81 -601.685)" fill="#fff"/>
    <path id="Path_791" data-name="Path 791" d="M1552.083-1337.812a5.721,5.721,0,0,0-3.551,1.626,9.209,9.209,0,0,0-2.369,5.413c-.071.467-.075,1.231-.093,9.328-.018,8.946,0,9.657.151,11.323a10.547,10.547,0,0,0,1.5,5.022,4.772,4.772,0,0,0,1.151,1.254,5.777,5.777,0,0,0,2.479,1.031,10.8,10.8,0,0,0,2.956,0,5.517,5.517,0,0,0,4.573-3.724,14.739,14.739,0,0,0,.893-4.9c.062-.942.067-2.267.053-9.91-.014-6.506-.031-8.932-.072-9.243a12.2,12.2,0,0,0-1.009-3.907,5.6,5.6,0,0,0-5.035-3.288A10.546,10.546,0,0,0,1552.083-1337.812Zm1.52,4.568c.871.258,1.28,1.133,1.435,3.066.058.729.058,18.589,0,19.442a7.77,7.77,0,0,1-.493,2.591,1.658,1.658,0,0,1-1.729.911,1.361,1.361,0,0,1-.72-.16c-.827-.409-1.12-1.315-1.24-3.831-.031-.653-.04-4.106-.026-9.932.013-7.946.022-8.985.089-9.425.236-1.635.622-2.355,1.422-2.644A2.742,2.742,0,0,1,1553.6-1333.244Z" transform="translate(-1477.357 -606.62)" fill="#fff"/>
    <path id="Path_792" data-name="Path 792" d="M1937-921.311v1.689h8.444V-923H1937Z" transform="translate(-1850.92 -1003.021)" fill="#fff"/>
    <path id="Path_793" data-name="Path 793" d="M1259-920.24v1.76l3.524-.027c1.933-.013,3.844-.04,4.244-.053l.72-.027V-922H1259Z" transform="translate(-1203.05 -1003.976)" fill="#fff"/>
    <path id="Path_794" data-name="Path 794" d="M84.332-472.632A652.588,652.588,0,0,0,5.7-467.477c-4.275.551-4.053.507-4.417.911a1.35,1.35,0,0,0-.262,1.355,1.465,1.465,0,0,0,.813.791c.316.093.409.089,1.378-.04,4.235-.578,10.11-1.289,15.043-1.818a682.181,682.181,0,0,1,99.278-3.138c19.3.773,38.871,2.431,56.683,4.8,1.293.173,2.1.262,2.249.249a1.3,1.3,0,0,0,1.027-.733,1.357,1.357,0,0,0,0-1.173,1.291,1.291,0,0,0-.644-.622c-.213-.1-1.573-.289-5.9-.831a644.4,644.4,0,0,0-66.371-4.76C99.179-472.6,89.335-472.672,84.332-472.632Z" transform="translate(-0.896 -1433.364)" fill="#fff"/>
    <path id="Path_795" data-name="Path 795" d="M2025.6-353.6a1.587,1.587,0,0,0-1.231,1.36,15.284,15.284,0,0,0-.138,2.96,16.384,16.384,0,0,0,.147,4.155,1.507,1.507,0,0,0,1.382,1.253,1.925,1.925,0,0,0,1.645-.444,2.03,2.03,0,0,0,.266-.431c.249-.555.267-.724.316-3.4.053-3.257.031-3.786-.2-4.488a1.553,1.553,0,0,0-.88-.907A3.278,3.278,0,0,0,2025.6-353.6Zm.915.991c.174.089.293.382.351.84s.018,5.586-.049,6.084c-.085.618-.293.871-.729.871s-.644-.249-.729-.933c-.058-.436-.058-2.724,0-4.755.035-1.493.067-1.711.275-1.969A.73.73,0,0,1,2026.514-352.609Z" transform="translate(-1934.253 -1547.076)" fill="#fff"/>
    <path id="Path_796" data-name="Path 796" d="M1737.108-352.557a1.665,1.665,0,0,0-1.3,1.4c-.1.342-.1.391-.089,2.88.009,1.391.031,2.786.058,3.1.1,1.262.422,1.942,1.075,2.24a1.367,1.367,0,0,0,.787.124,1.748,1.748,0,0,0,.755-.1,1.707,1.707,0,0,0,.96-1.324,7.979,7.979,0,0,0,.093-1.431l.023-1.12h-1.116l.009.987a3.531,3.531,0,0,1-.209,1.778.614.614,0,0,1-1.062-.04c-.191-.329-.214-.622-.258-3.457-.049-2.858-.036-3.315.133-3.688a.593.593,0,0,1,.573-.413c.227-.018.275,0,.4.1a1,1,0,0,1,.24.373,10.365,10.365,0,0,1,.174,2.284c0,.089.146.1.724.053l.342-.031v-.609a5.725,5.725,0,0,0-.36-2.364,1.52,1.52,0,0,0-.738-.658A2.6,2.6,0,0,0,1737.108-352.557Z" transform="translate(-1658.583 -1548.076)" fill="#fff"/>
    <path id="Path_797" data-name="Path 797" d="M1953.28-351.969l-.28.018v9.55h1.111V-352l-.275.009C1953.68-351.987,1953.431-351.978,1953.28-351.969Z" transform="translate(-1866.209 -1548.646)" fill="#fff"/>
    <path id="Path_798" data-name="Path 798" d="M1847-350.529v.471l.524-.018.529-.018.027,2.16c.018,1.187.031,3.129.031,4.32v2.169h1.12l-.031-4.333-.036-4.333h.991V-351H1847Z" transform="translate(-1764.92 -1549.601)" fill="#fff"/>
    <path id="Path_799" data-name="Path 799" d="M2151.969-350.322c-.013.1-.044,2.075-.071,4.4s-.058,4.4-.072,4.608l-.027.391h1.022l.027-.458c.019-.249.036-1.707.041-3.24s.013-2.782.022-2.769.471,1.475,1.027,3.253l1,3.235.4.013.4.013.032-1.369c.049-2.369.128-8.15.11-8.164a3.782,3.782,0,0,0-.489-.035l-.471-.013-.031,1.822c-.031,1.7-.009,4.093.045,4.48.008.093,0,.16-.014.151s-.506-1.475-1.08-3.244l-1.044-3.226-.409-.013-.413-.013Z" transform="translate(-2056.174 -1550.079)" fill="#fff"/>
    <path id="Path_800" data-name="Path 800" d="M1608.144-348.878l-.182.018.018.32c.009.178.049,1.964.089,3.973.08,3.88.08,3.92-.125,4.2a.71.71,0,0,1-.6.253c-.44,0-.693-.32-.742-.942-.013-.2-.062-2.035-.107-4.071s-.089-3.7-.1-3.711-.262,0-.555,0l-.538.018.018.493c.009.276.044,1.955.08,3.742s.089,3.4.115,3.6a4.418,4.418,0,0,0,.156.684,1.438,1.438,0,0,0,1.515,1.107,1.84,1.84,0,0,0,1.538-.476,1.4,1.4,0,0,0,.36-.671c.156-.542.16-.929.071-4.8-.044-2.067-.084-3.76-.089-3.769S1608.37-348.9,1608.144-348.878Z" transform="translate(-1533.961 -1551.603)" fill="#fff"/>
    <path id="Path_801" data-name="Path 801" d="M2359.643-346.144c0,.2-.062,2.346-.128,4.777s-.125,4.426-.12,4.431,2.844.093,2.853.084.018-.2.031-.453l.027-.449-.871-.027c-.479-.018-.88-.04-.889-.049s.031-1.955.1-4.315.111-4.3.1-4.311a5.466,5.466,0,0,0-.56-.031l-.542-.013Z" transform="translate(-2254.543 -1553.901)" fill="#fff"/>
    <path id="Path_802" data-name="Path 802" d="M1479.184-344.533a6.363,6.363,0,0,0-.862.058c-.018.018.031,2.106.111,4.644s.138,4.679.138,4.764v.147l.529-.013a2.785,2.785,0,0,0,.56-.049c.031-.027-.027-2.266-.093-3.937l-.031-.675h.382a1.757,1.757,0,0,1,.924.173c.173.138.218.48.284,2.138.04.871.08,1.729.1,1.911l.031.333.56.013.56.013-.036-.191c-.018-.107-.058-.671-.085-1.258-.1-2.369-.218-3.044-.569-3.377a1.1,1.1,0,0,0-.262-.178l-.124-.053.133-.067a1.173,1.173,0,0,0,.436-.458,3.089,3.089,0,0,0,.182-1.444c0-1.244-.129-1.8-.484-2.16C1481.233-344.538,1480.846-344.591,1479.184-344.533Zm1.445.951c.168.107.24.271.293.671a10.065,10.065,0,0,1,0,1.942.846.846,0,0,1-.169.36c-.1.111-.165.138-.427.169-.453.058-.778.053-.8-.013-.031-.089-.107-3.16-.084-3.2a2.54,2.54,0,0,1,.542-.022A1.327,1.327,0,0,1,1480.628-343.582Z" transform="translate(-1412.622 -1555.761)" fill="#fff"/>
    <path id="Path_803" data-name="Path 803" d="M2450.133-342.629c-.067.187-1.759,9.381-1.737,9.435s.12.067.511.067c.476,0,.493,0,.515-.1.014-.053.085-.458.16-.9s.138-.8.143-.809,1.719.058,1.737.076.062.427.115.915l.1.893.507.035a5.08,5.08,0,0,0,.525.013c.013-.013-1.222-9.608-1.236-9.617s-.307-.018-.667-.035C2450.3-342.678,2450.146-342.669,2450.133-342.629Zm.951,4.346c.151,1.333.271,2.44.271,2.462a8.4,8.4,0,0,1-1.449-.031c-.014-.013.164-1.129.4-2.484s.426-2.48.431-2.5.018,0,.04.044S2450.938-339.616,2451.084-338.283Z" transform="translate(-2339.589 -1557.563)" fill="#fff"/>
    <path id="Path_804" data-name="Path 804" d="M1374.678-341.938l-1.178.049.013.462.013.462.529-.027a4.682,4.682,0,0,1,.533-.018s.071,1.826.155,4.053.156,4.173.156,4.328v.284l.542-.031a5.366,5.366,0,0,0,.56-.049c.009-.009-.053-1.911-.142-4.231s-.16-4.257-.16-4.315c0-.093.013-.1.418-.1a3.1,3.1,0,0,0,.489-.027c.076-.031.093-.32.044-.7l-.031-.2-.382.009C1376.029-341.987,1375.327-341.964,1374.678-341.938Z" transform="translate(-1312.462 -1558.201)" fill="#fff"/>
    <path id="Path_805" data-name="Path 805" d="M2575.727-339.647c.013.138.2,2.3.413,4.808s.391,4.56.391,4.56.244.018.542.036l.538.031.653-3.28c.755-3.786.742-3.711.76-3.693s.169,1.6.36,3.533l.347,3.515.4.031a4.192,4.192,0,0,0,.551.013l.156-.013.773-4.724c.426-2.6.769-4.728.76-4.737a4.5,4.5,0,0,0-.506-.049l-.489-.031-.484,3.48a36.207,36.207,0,0,1-.56,3.751c0-.027-.177-1.675-.39-3.666l-.387-3.622-.44-.036a3.4,3.4,0,0,0-.458-.018c-.009.009-.329,1.631-.711,3.6s-.711,3.573-.724,3.551-.134-1.653-.262-3.631-.236-3.6-.24-3.6-.235-.018-.516-.031l-.506-.027Z" transform="translate(-2461.236 -1560.208)" fill="#fff"/>
    <path id="Path_806" data-name="Path 806" d="M1267.558-338.81c-.684.182-1.013.662-1.115,1.622a3.824,3.824,0,0,0,.125,1.471c.168.493.355.738,1.324,1.7,1.031,1.027,1.191,1.253,1.338,1.871a5.375,5.375,0,0,1-.027,1.769.6.6,0,0,1-.56.32c-.627.053-.818-.391-.889-2.053l-.031-.738-.525.013a3.355,3.355,0,0,0-.538.04c-.009.013,0,.342.013.733.089,1.866.417,2.622,1.253,2.875a2.713,2.713,0,0,0,1.471-.053c.7-.267.978-.9.973-2.222a3.443,3.443,0,0,0-.347-1.684,5.6,5.6,0,0,0-1.391-1.711,8.255,8.255,0,0,1-.96-1.049,2.169,2.169,0,0,1-.058-1.649.63.63,0,0,1,.578-.387c.2-.018.253,0,.373.1a.976.976,0,0,1,.227.351,6.092,6.092,0,0,1,.187,1.551v.347h.262c.142,0,.382-.013.538-.031l.28-.027-.031-.582a7.739,7.739,0,0,0-.222-1.6,1.442,1.442,0,0,0-.933-.978A3.448,3.448,0,0,0,1267.558-338.81Z" transform="translate(-1210.142 -1561.187)" fill="#fff"/>
    <path id="Path_807" data-name="Path 807" d="M1136.5-332.849a1.925,1.925,0,0,0-.453.049c-.044.049.168,3.737.3,5.048.062.653.111,1.231.1,1.28s-.582-1.333-1.28-3.071l-1.267-3.16-.4.027a3.785,3.785,0,0,0-.418.044c-.018.013.382,7.684.471,9.123l.027.413.48-.018a2.945,2.945,0,0,0,.511-.044c.031-.036-.187-3.977-.3-5.342-.049-.6-.08-1.111-.071-1.12s.382.915,1.965,5l.528,1.36.4-.018c.222-.009.409-.022.409-.027s-.506-9.51-.516-9.572c0,0-.013,0-.031,0S1136.736-332.854,1136.5-332.849Z" transform="translate(-1082.733 -1566.921)" fill="#fff"/>
    <path id="Path_808" data-name="Path 808" d="M2827.943-326.716a1.758,1.758,0,0,0-1.212,1.262,15.793,15.793,0,0,0-.334,3.2,16.947,16.947,0,0,0-.022,3.973,1.581,1.581,0,0,0,1.734,1.293,1.417,1.417,0,0,0,1.066-.315c.5-.436.72-1.178.826-2.7.022-.378.044-.711.044-.742,0-.062-.146-.084-.782-.129l-.316-.022-.031.587a6.162,6.162,0,0,1-.32,2.084.668.668,0,0,1-.888.218c-.191-.115-.285-.342-.338-.818a23.978,23.978,0,0,1,.116-3.049c.195-3.191.24-3.475.595-3.786.147-.129.173-.138.445-.12.244.018.3.036.391.138.209.244.258.547.227,1.475-.018.467-.045.938-.059,1.049l-.026.2.542.031a4.543,4.543,0,0,0,.564.013c.009-.013.027-.489.044-1.058a4.434,4.434,0,0,0-.173-1.9,1.507,1.507,0,0,0-.813-.809A3.061,3.061,0,0,0,2827.943-326.716Z" transform="translate(-2700.681 -1572.774)" fill="#fff"/>
    <path id="Path_809" data-name="Path 809" d="M1007.244-324.69c-.871.24-1.244.911-1.244,2.226,0,.96.3,5.257.4,5.751a2.48,2.48,0,0,0,.538,1.258c.333.369.556.449,1.24.449a1.654,1.654,0,0,0,1.24-.333,2.431,2.431,0,0,0,.627-2c0-.613-.235-4.533-.315-5.262-.124-1.147-.422-1.742-1.018-2.022a1.474,1.474,0,0,0-.733-.124A2.507,2.507,0,0,0,1007.244-324.69Zm.933.964c.356.236.413.516.556,2.675a34.23,34.23,0,0,1,.2,4.284c-.067.6-.262.827-.7.822-.52,0-.693-.284-.8-1.329-.1-.92-.324-4.817-.307-5.377a1.615,1.615,0,0,1,.12-.8.528.528,0,0,1,.289-.3A.634.634,0,0,1,1008.177-323.725Z" transform="translate(-961.294 -1574.685)" fill="#fff"/>
    <path id="Path_810" data-name="Path 810" d="M883.511-316.708c-1.035.2-1.506.907-1.511,2.258,0,.613.284,4.635.378,5.3.231,1.689.916,2.373,2.2,2.191.844-.12,1.276-.6,1.427-1.6a13.75,13.75,0,0,0-.036-2.2l-.027-.262-.538.031c-.293.018-.538.036-.542.04s.022.387.058.853c.12,1.658-.031,2.2-.613,2.209-.387,0-.6-.2-.724-.7a23.955,23.955,0,0,1-.32-3.266c-.178-2.506-.187-3.182-.031-3.52a.605.605,0,0,1,.582-.391c.546,0,.706.369.831,1.884.036.458.067.849.067.871s.067.031.147.022.32-.031.538-.049l.391-.027-.031-.516a6.314,6.314,0,0,0-.458-2.378,1.623,1.623,0,0,0-.755-.676A3.118,3.118,0,0,0,883.511-316.708Z" transform="translate(-842.804 -1582.356)" fill="#fff"/>
    <path id="Path_811" data-name="Path 811" d="M2939.771-317c0,.009-.475,2.129-1.058,4.706a35.345,35.345,0,0,0-.981,4.715,4.308,4.308,0,0,0,.52.058c.409.022.453.018.476-.049.008-.044.093-.44.182-.88a7.51,7.51,0,0,1,.2-.831c.022-.027,1.693.08,1.724.111,0,.009.045.422.085.924s.075.911.075.911.24.022.525.036l.515.031-.018-.124c-.009-.067-.2-2.155-.435-4.635s-.431-4.6-.445-4.7c-.018-.124-.053-.2-.1-.209A12.021,12.021,0,0,0,2939.771-317Zm.809,4.52c.1,1.3.177,2.373.169,2.382a14.169,14.169,0,0,1-1.44-.116c-.013-.013.2-1.129.484-2.48s.52-2.462.52-2.48A19.043,19.043,0,0,1,2940.58-312.482Z" transform="translate(-2807.168 -1582.085)" fill="#fff"/>
    <path id="Path_812" data-name="Path 812" d="M3072.02-310c-.04.28-.737,9.337-.724,9.355s2.844.24,2.858.227.021-.213.04-.462l.031-.449-.854-.058c-.662-.044-.857-.071-.875-.12s.573-8.026.626-8.444l.022-.142-.3-.027c-.164-.013-.413-.036-.551-.049l-.253-.027Z" transform="translate(-2934.808 -1588.588)" fill="#fff"/>
    <path id="Path_813" data-name="Path 813" d="M3170.829-301.772c-.76.124-1.23.707-1.453,1.782-.1.489-.475,4.884-.475,5.595,0,1.218.267,1.858.906,2.173a2.224,2.224,0,0,0,1.6.107c.556-.178.933-.818,1.12-1.884.062-.351.208-1.782.187-1.809s-1.062-.1-1.075-.093-.044.373-.084.809a5.615,5.615,0,0,1-.316,1.751.548.548,0,0,1-.574.364c-.453,0-.64-.276-.675-.991-.026-.52.387-5.386.5-5.919a1.563,1.563,0,0,1,.41-.844.751.751,0,0,1,.648-.049c.364.151.449.7.325,2.049a4.954,4.954,0,0,0-.036.782,2.918,2.918,0,0,0,.546.062l.516.031.058-.773c.107-1.422.009-2.146-.355-2.609a1.629,1.629,0,0,0-1.044-.538A1.708,1.708,0,0,0,3170.829-301.772Z" transform="translate(-3028.075 -1596.602)" fill="#fff"/>
    <path id="Path_814" data-name="Path 814" d="M691.066-298.947c-.258.027-.467.044-.471.049,0,.022-.6,9.528-.6,9.6s.027.08.169.058c.089-.013.316-.036.5-.053l.342-.027.027-.231c.013-.124.036-.538.053-.92l.027-.693.609-.053.876-.08c.258-.022.271-.018.3.08l.209.9.191.791.471-.031a2.979,2.979,0,0,0,.52-.062c.031-.018-.249-1.182-.831-3.448-.484-1.884-1.022-3.986-1.2-4.68l-.32-1.253-.2,0C691.626-298.991,691.324-298.969,691.066-298.947Zm1,4.266c.324,1.351.586,2.462.582,2.466a12.221,12.221,0,0,1-1.449.111c-.018-.018.027-1.12.1-2.453s.124-2.471.129-2.529.013-.1.027-.08S691.737-296.036,692.062-294.68Z" transform="translate(-659.336 -1599.29)" fill="#fff"/>
    <path id="Path_815" data-name="Path 815" d="M3293.015-291.053c-.014.084-.178,1.751-.365,3.706-.417,4.4-.417,4.68,0,5.3a1.718,1.718,0,0,0,1.608.658,1.485,1.485,0,0,0,.755-.1c.547-.253.862-.8,1.019-1.764.08-.484.746-7.421.729-7.532-.013-.053-.128-.08-.525-.116a2.2,2.2,0,0,0-.538-.022c-.012.013-.159,1.466-.324,3.226s-.342,3.546-.387,3.973c-.12,1.111-.258,1.369-.747,1.418a.723.723,0,0,1-.724-.355c-.089-.169-.1-.249-.093-.658,0-.369.618-7.048.7-7.63.022-.16,0-.169-.671-.218l-.408-.027Z" transform="translate(-3146.026 -1606.744)" fill="#fff"/>
    <path id="Path_816" data-name="Path 816" d="M554.4-286.538c-.427.044-.826.084-.889.084l-.116,0,.462,4.764c.253,2.622.462,4.773.471,4.777.031.031,2.124-.213,2.311-.271a1.966,1.966,0,0,0,.453-.227c.48-.333.684-.884.684-1.849,0-.471-.364-4.6-.471-5.306a4.531,4.531,0,0,0-.333-1.146,1.364,1.364,0,0,0-.689-.747,1.3,1.3,0,0,0-.7-.156C555.369-286.614,554.831-286.582,554.4-286.538Zm1.142.849a1.237,1.237,0,0,1,.613.96c.031.169.178,1.493.316,2.946a16.4,16.4,0,0,1,.2,2.991,1.96,1.96,0,0,1-.129.493,1.044,1.044,0,0,1-.844.369l-.36.027-.027-.2c-.036-.262-.689-7.119-.707-7.372l-.009-.2.222-.027A1.7,1.7,0,0,1,555.546-285.689Z" transform="translate(-528.807 -1611.13)" fill="#fff"/>
    <path id="Path_817" data-name="Path 817" d="M3417.3-278.537c-.009,0-1.009,9.51-1,9.519.022.018,2.831.293,2.849.276a7.138,7.138,0,0,0,.1-.871s-.4-.049-.871-.1-.867-.1-.871-.1.191-1.933.436-4.288.435-4.288.421-4.3A9.285,9.285,0,0,0,3417.3-278.537Z" transform="translate(-3264.48 -1618.842)" fill="#fff"/>
    <path id="Path_818" data-name="Path 818" d="M480.13-277.309a5.386,5.386,0,0,0-.538.071c-.022.027.978,9.452,1,9.483a8.707,8.707,0,0,0,1.084-.084c.009-.027-1-9.5-1.009-9.51A4.353,4.353,0,0,0,480.13-277.309Z" transform="translate(-458.279 -1619.977)" fill="#fff"/>
    <path id="Path_819" data-name="Path 819" d="M350.335-265.763c-.511.062-.938.116-.938.12s1.058,9.47,1.076,9.488a9.871,9.871,0,0,0,1.075-.107c.009,0-.1-1.035-.24-2.284s-.249-2.28-.236-2.293a3.837,3.837,0,0,1,1.12-.027c.329.111.391.315.591,1.982.142,1.2.316,2.422.342,2.449s1.067-.115,1.084-.133a1.307,1.307,0,0,0-.049-.3c-.036-.156-.129-.8-.2-1.418a12.382,12.382,0,0,0-.467-2.5,1.045,1.045,0,0,0-.587-.636l-.147-.027.218-.2a1.171,1.171,0,0,0,.4-.893,7.667,7.667,0,0,0-.262-2.378,1.305,1.305,0,0,0-.84-.924A7.122,7.122,0,0,0,350.335-265.763Zm1.462.84c.24.116.333.4.449,1.307.133,1.107.071,1.613-.218,1.764a3.379,3.379,0,0,1-1.058.156c-.022-.027-.391-3.169-.369-3.2a6.282,6.282,0,0,1,.831-.1A1.025,1.025,0,0,1,351.8-264.923Z" transform="translate(-333.87 -1630.941)" fill="#fff"/>
    <path id="Path_820" data-name="Path 820" d="M3505.53-260.938c-.688,2.564-1.249,4.671-1.235,4.679a3.435,3.435,0,0,0,.52.08c.351.04.5.04.516.009s.106-.418.217-.867.213-.835.223-.849a16.563,16.563,0,0,1,1.724.178,9.326,9.326,0,0,1,.058.933l.04.911.466.053a3.976,3.976,0,0,0,.511.044c.031,0-.04-1.689-.2-4.831-.133-2.653-.249-4.831-.253-4.84s-.311-.049-.67-.089l-.663-.076Zm1.862-.24c.049,1.378.08,2.515.066,2.529a8.918,8.918,0,0,1-1.444-.182c0-.036,1.063-4.222,1.209-4.764.026-.1.053-.16.062-.133S3507.343-262.556,3507.392-261.178Z" transform="translate(-3348.565 -1631.206)" fill="#fff"/>
    <path id="Path_821" data-name="Path 821" d="M3644.391-255.351a3.3,3.3,0,0,0-.04.462s.231.04.507.071a5.039,5.039,0,0,1,.511.08c.009.009-.218,1.938-.506,4.284-.329,2.671-.506,4.275-.481,4.293a6.753,6.753,0,0,0,1.041.12s.249-1.933.533-4.28.524-4.271.534-4.28a3.608,3.608,0,0,1,.466.036,1.527,1.527,0,0,0,.484.018,4.086,4.086,0,0,0,.116-.853c0-.009-.648-.093-1.427-.187s-1.48-.182-1.555-.2l-.133-.018Z" transform="translate(-3482.395 -1640.571)" fill="#fff"/>
    <path id="Path_822" data-name="Path 822" d="M227.632-253.364a1.6,1.6,0,0,0-1.52,1.289c-.129.56-.093,1.124.24,3.822.32,2.617.418,3.142.667,3.68a1.435,1.435,0,0,0,1.173.938,2.758,2.758,0,0,0,1.093-.089,1.561,1.561,0,0,0,.787-.551,2.1,2.1,0,0,0,.311-1.315,10.6,10.6,0,0,0-.138-1.955c-.511-4.146-.547-4.373-.822-4.959A1.566,1.566,0,0,0,227.632-253.364Zm.52,1a1.177,1.177,0,0,1,.44.782c.04.164.213,1.435.387,2.822.355,2.849.4,3.555.24,3.831a.649.649,0,0,1-.564.351c-.458.036-.671-.24-.835-1.062-.133-.684-.676-5.151-.684-5.639,0-.524.031-.716.182-.893A.69.69,0,0,1,228.152-252.364Z" transform="translate(-215.998 -1642.877)" fill="#fff"/>
    <path id="Path_823" data-name="Path 823" d="M3728.459-240.552a1.483,1.483,0,0,0-1,.818c-.3.6-.333.782-.724,3.68-.435,3.249-.435,3.92-.013,4.533a1.676,1.676,0,0,0,.365.364,2.517,2.517,0,0,0,1.7.276c.627-.133,1.076-.782,1.311-1.9.1-.484.694-5.048.721-5.564.062-1.2-.276-1.862-1.084-2.129A2.9,2.9,0,0,0,3728.459-240.552Zm.96,1.022c.4.271.4.516-.027,3.8-.4,3.022-.453,3.328-.68,3.684a.7.7,0,0,1-1.124-.089c-.165-.32-.125-.858.249-3.711.186-1.413.368-2.7.409-2.857a1.288,1.288,0,0,1,.546-.9A.851.851,0,0,1,3729.42-239.53Z" transform="translate(-3560.811 -1655.103)" fill="#fff"/>
    <path id="Path_824" data-name="Path 824" d="M126.848-235.692c-.244.036-.444.067-.449.071s1.235,9.466,1.244,9.483,2.742-.342,2.809-.364c.036-.009.031-.133-.009-.449-.036-.236-.067-.44-.076-.444s-.4.036-.871.1-.858.111-.867.1-.258-1.88-.555-4.151-.555-4.2-.569-4.28C127.479-235.79,127.506-235.786,126.848-235.692Z" transform="translate(-120.782 -1659.723)" fill="#fff"/>
    <path id="Path_825" data-name="Path 825" d="M24.644-226.8l-1.244.182.662,4.733c.369,2.6.671,4.737.671,4.742s1.067-.129,1.084-.142-.129-1-.3-2.222-.311-2.258-.311-2.311c0-.093.036-.1.755-.2a6.674,6.674,0,0,0,.8-.133c.036-.022.036-.138,0-.422-.031-.218-.062-.418-.071-.444s-.231-.018-.72.053c-.387.058-.755.107-.818.107h-.111l-.209-1.493c-.116-.822-.2-1.5-.2-1.507s.391-.062.849-.124.849-.12.862-.133a2.608,2.608,0,0,0-.036-.449L26.257-227l-.182,0C25.973-226.991,25.333-226.907,24.644-226.8Z" transform="translate(-22.36 -1668.091)" fill="#fff"/>
    <path id="Path_826" data-name="Path 826" d="M3848.315-225.858c-.031.2-1.315,9.261-1.315,9.31a5.913,5.913,0,0,0,1.088.178s.152-1.027.325-2.271.328-2.271.337-2.28a5.215,5.215,0,0,1,1.018.213c.347.178.387.391.253,1.373-.244,1.835-.355,2.778-.355,2.978,0,.244-.059.213.578.311.51.08.457.142.546-.658.044-.382.12-.987.169-1.342s.1-1,.116-1.449c.031-.955-.018-1.209-.276-1.435a.733.733,0,0,0-.2-.138c-.1,0-.036-.08.08-.1.64-.138,1.036-1.213,1.05-2.853,0-.693,0-.716-.121-.964a1.144,1.144,0,0,0-.787-.613c-.2-.062-2.289-.4-2.466-.4A.521.521,0,0,0,3848.315-225.858Zm1.591.969a1,1,0,0,1,.7.324,3.9,3.9,0,0,1-.031,1.364c-.187,1.235-.355,1.555-.809,1.555a2.493,2.493,0,0,1-.9-.155c0-.027.1-.747.222-1.6s.222-1.555.222-1.564a.35.35,0,0,1,.146.009C3849.533-224.942,3849.738-224.911,3849.906-224.889Z" transform="translate(-3676.041 -1669.046)" fill="#fff"/>
  </g>
</svg>
