<svg xmlns="http://www.w3.org/2000/svg" width="156.685" height="116.98" viewBox="0 0 156.685 116.98">
  <g id="OBJECTS" transform="translate(0 -0.3)">
    <g id="_Group_" data-name="&lt;Group&gt;" transform="translate(0 0.3)">
      <g id="_Group_2" data-name="&lt;Group&gt;" transform="translate(7.237 51.317)">
        <g id="_Group_3" data-name="&lt;Group&gt;" transform="translate(0 6.003)">
          <g id="_Group_4" data-name="&lt;Group&gt;" opacity="0.5">
            <path id="_Path_" data-name="&lt;Path&gt;" d="M238.281,844.149H105.464c-6.336-9.983-8.382-22.808-4.385-33.99,6.183-17.32,26.061-28.516,44.075-24.818,15.5,3.179,28.633,15.727,44.455,15.588,9.785-.1,19.191-5.16,28.933-4.231,10.319.979,19.249,9.025,22.582,18.847C244.288,824.87,242.8,835.379,238.281,844.149Z" transform="translate(-99.028 -784.634)" fill="#e2edff"/>
          </g>
          <g id="_Group_5" data-name="&lt;Group&gt;" transform="translate(0.042 1.452)">
            <path id="_Path_2" data-name="&lt;Path&gt;" d="M124.652,835.523a37.995,37.995,0,0,0,31.4-30.942q-.146-.044-.292-.08a40.156,40.156,0,0,1-1.315,5.284,37.573,37.573,0,0,1-10.5,16.041,38.01,38.01,0,0,1-16.845,8.93,37.136,37.136,0,0,1-19.681-.957,1.527,1.527,0,0,0-.168-.058q-.029.139-.051.285A37.585,37.585,0,0,0,124.652,835.523Z" transform="translate(-106.645 -804.5)" fill="#fff"/>
            <path id="_Path_3" data-name="&lt;Path&gt;" d="M107.317,1027.555a54.139,54.139,0,0,0-7.71,1.111c0-.1-.007-.2-.007-.307a56.755,56.755,0,0,1,9.457-1.2c10.546-.468,20.967,1.732,31.381,3.026,9.522,1.191,19.359,1.608,28.655-1.206a34.527,34.527,0,0,0,12.131-6.343,36.485,36.485,0,0,0,8.675-10.867,50.15,50.15,0,0,0,2.916-6.541l.314-.029a47.851,47.851,0,0,1-4.611,9.493,34.352,34.352,0,0,1-9.069,9.669,36.92,36.92,0,0,1-12.088,5.408c-9.464,2.419-19.308,1.739-28.9.453C128.153,1028.849,117.775,1026.8,107.317,1027.555Z" transform="translate(-99.6 -990.533)" fill="#fff"/>
            <path id="_Path_4" data-name="&lt;Path&gt;" d="M1645.349,989.781q-.029.146-.066.285c-.351-.015-.7-.029-1.045-.051a59.966,59.966,0,0,1-12.913-2.236,35.349,35.349,0,0,1-9.961-4.48,19.173,19.173,0,0,1-6.891-7.637,15.536,15.536,0,0,1-.833-10.538,20.436,20.436,0,0,1,9.939-12.424l.438.073c-5.635,3.179-10,8.521-10.589,15.215a15.016,15.016,0,0,0,2.857,10.166,23.021,23.021,0,0,0,8.17,6.628,43.421,43.421,0,0,0,10.677,3.661A60.932,60.932,0,0,0,1645.349,989.781Z" transform="translate(-1502.484 -941.87)" fill="#fff"/>
            <path id="_Path_5" data-name="&lt;Path&gt;" d="M815.418,861.961c-.738,3-1.257,6.336.029,9.259a6.442,6.442,0,0,0,6.548,4.056c2.945-.27,5.569-2,7.9-3.705a65.748,65.748,0,0,0,12.168-11.627q.153.044.307.095-1.1,1.359-2.266,2.66a65.765,65.765,0,0,1-6.212,6.066,43.164,43.164,0,0,1-7.023,5.138c-2.309,1.286-5.152,2.266-7.768,1.323a7.411,7.411,0,0,1-4.414-5.328c-.753-3.011-.066-6.219.745-9.142a41.464,41.464,0,0,1,3.033-7.747c.5-.994,1.052-1.959,1.637-2.909q.132.058.27.124a40.679,40.679,0,0,0-4.955,11.737Z" transform="translate(-762.127 -846.768)" fill="#fff"/>
            <path id="_Path_6" data-name="&lt;Path&gt;" d="M1818.374,1137.59a7.337,7.337,0,0,1-2.127-6.307,6.072,6.072,0,0,1,4.027-4.911c2.814-.9,5.847-.015,8.682-.928a8.851,8.851,0,0,0,.928-.344q.08.124.154.256a10.878,10.878,0,0,1-2.909.8,41.457,41.457,0,0,1-4.151.117,7.086,7.086,0,0,0-4.341,1.293,6.011,6.011,0,0,0-1.937,3.018,7.063,7.063,0,0,0,2.185,7.1,10.889,10.889,0,0,0,8.039,2.638,19.432,19.432,0,0,0,7.381-1.885q.007.132.022.263a18.452,18.452,0,0,1-8.85,1.915,10.612,10.612,0,0,1-7.1-3.018Z" transform="translate(-1690.709 -1101.67)" fill="#fff"/>
            <path id="_Path_7" data-name="&lt;Path&gt;" d="M1192.234,1267.745h-.314q-2.171-5.167-4.334-10.326-1.831-4.363-3.661-8.719c-.979-2.324-2.112-4.933-4.5-6.117-2.609-1.3-5.737-.563-8.068.965a22.42,22.42,0,0,0-5.664,5.868,36.492,36.492,0,0,0-6.592,18.329h-.3a36.827,36.827,0,0,1,8.214-20.528,16.18,16.18,0,0,1,6.146-4.948,7.66,7.66,0,0,1,7.286.592c1.988,1.454,2.953,3.837,3.873,6.029q1.973,4.692,3.939,9.391,1.988,4.728,3.976,9.464Z" transform="translate(-1081.393 -1209.683)" fill="#fff"/>
          </g>
        </g>
        <g id="_Group_6" data-name="&lt;Group&gt;" transform="translate(77.894)" opacity="0.5">
          <path id="_Path_8" data-name="&lt;Path&gt;" d="M1187.407,703.817c3.069.351,4.78,1.849,4.991,5.057.658,10.034-13.33,11.306-20.083,8.887-3.581-1.286-7.447-4.063-7.418-8.265.036-5.415,5.883-8.207,10.575-6.5a15.317,15.317,0,0,0,6.007.819A39.12,39.12,0,0,1,1187.407,703.817Z" transform="translate(-1164.898 -702.494)" fill="#e2edff"/>
        </g>
      </g>
      <g id="_Group_7" data-name="&lt;Group&gt;" transform="translate(8.485 0)">
        <g id="_Group_8" data-name="&lt;Group&gt;" transform="translate(113.977 20.316)">
          <g id="_Group_9" data-name="&lt;Group&gt;">
            <path id="_Path_9" data-name="&lt;Path&gt;" d="M1680.216,282.941a10.414,10.414,0,0,1-4.516-3.362l.6-1.279c1.491,1.966,1.98,3.033,3.837,2.879Z" transform="translate(-1675.7 -278.3)" fill="#ffb900"/>
          </g>
        </g>
        <g id="_Group_10" data-name="&lt;Group&gt;" transform="translate(137.136 46.487)">
          <g id="_Group_11" data-name="&lt;Group&gt;">
            <path id="_Path_10" data-name="&lt;Path&gt;" d="M1995.092,643.189a13.84,13.84,0,0,1-2.492-6.015l1.169-.775c.4,2.77.329,4.063,2.1,5.13Z" transform="translate(-1992.6 -636.4)" fill="#007bff"/>
          </g>
        </g>
        <g id="_Group_12" data-name="&lt;Group&gt;" transform="translate(88.23 27.814)">
          <g id="_Group_13" data-name="&lt;Group&gt;">
            <path id="_Path_11" data-name="&lt;Path&gt;" d="M1328.932,382.851a9.3,9.3,0,0,1-5.525-.446l-.007-1.505c2.193.928,3.091,1.615,4.706.409Z" transform="translate(-1323.4 -380.9)" fill="#14cca1"/>
          </g>
        </g>
        <g id="_Group_14" data-name="&lt;Group&gt;" transform="translate(40.012 23.21)">
          <g id="_Group_15" data-name="&lt;Group&gt;">
            <path id="_Path_12" data-name="&lt;Path&gt;" d="M667.524,318.346a7.956,7.956,0,0,1-3.325,2.675l-.6-.855c1.615-.636,2.4-.716,2.85-2.266Z" transform="translate(-663.6 -317.9)" fill="#ff5c33"/>
          </g>
        </g>
        <g id="_Group_16" data-name="&lt;Group&gt;" transform="translate(6.336 58.479)">
          <g id="_Group_17" data-name="&lt;Group&gt;">
            <path id="_Path_13" data-name="&lt;Path&gt;" d="M208.522,803.591a10.064,10.064,0,0,1-5.722-1.549l.395-1.542c2.068,1.389,2.836,2.266,4.867,1.345Z" transform="translate(-202.8 -800.5)" fill="#007bff"/>
          </g>
        </g>
        <g id="_Group_18" data-name="&lt;Group&gt;" transform="translate(12.665 18.475)">
          <g id="_Group_19" data-name="&lt;Group&gt;">
            <path id="_Path_14" data-name="&lt;Path&gt;" d="M292.762,258.881a9.967,9.967,0,0,1-3.362-4.721l1.133-1.06c.767,2.4.848,3.6,2.843,4.034Z" transform="translate(-289.4 -253.1)" fill="#14cca1"/>
          </g>
        </g>
        <g id="_Group_20" data-name="&lt;Group&gt;" transform="translate(19.564 36.299)">
          <g id="_Group_21" data-name="&lt;Group&gt;" transform="translate(0)">
            <path id="_Path_15" data-name="&lt;Path&gt;" d="M390.2,498.272a10.638,10.638,0,0,1-5.927,1.842l-.475-1.579c2.587.058,3.742.4,5.064-1.535Z" transform="translate(-383.8 -497)" fill="#007bff"/>
          </g>
        </g>
        <g id="_Group_22" data-name="&lt;Group&gt;" transform="translate(46.75)">
          <g id="_Group_23" data-name="&lt;Group&gt;">
            <path id="_Path_16" data-name="&lt;Path&gt;" d="M761.968,1.637a10.111,10.111,0,0,1-5.81,1.286L755.8,1.374c2.485.263,3.574.687,4.955-1.074Z" transform="translate(-755.8 -0.3)" fill="#ffb900"/>
          </g>
        </g>
        <g id="_Group_24" data-name="&lt;Group&gt;" transform="translate(75.967 0.607)">
          <path id="_Path_17" data-name="&lt;Path&gt;" d="M1159.305,13.153A9.541,9.541,0,0,1,1155.6,9.66l.636-1.06c1.147,1.915,1.491,2.916,3.15,3Z" transform="translate(-1155.6 -8.6)" fill="#14cca1"/>
        </g>
        <g id="_Group_25" data-name="&lt;Group&gt;" transform="translate(103.665 6.051)">
          <g id="_Group_26" data-name="&lt;Group&gt;">
            <path id="_Path_18" data-name="&lt;Path&gt;" d="M1534.6,86.681c2-.27,2.163-1.389,3.077-3.581l1.052,1.067a9.309,9.309,0,0,1-3.632,4.188Z" transform="translate(-1534.6 -83.1)" fill="#ff5c33"/>
          </g>
        </g>
        <g id="_Group_27" data-name="&lt;Group&gt;" transform="translate(43.505 60.306)" opacity="0.8">
          <g id="_Group_28" data-name="&lt;Group&gt;">
            <path id="_Path_19" data-name="&lt;Path&gt;" d="M715.376,830.981a11.447,11.447,0,0,1-3.976-4.334l.811-1.147c1.169,2.287,1.484,3.464,3.369,3.712Z" transform="translate(-711.4 -825.5)" fill="#ff5c33"/>
          </g>
        </g>
        <g id="_Group_29" data-name="&lt;Group&gt;" transform="translate(100.508 50.206)">
          <g id="_Group_30" data-name="&lt;Group&gt;">
            <path id="_Path_20" data-name="&lt;Path&gt;" d="M1495.785,687.322a12.453,12.453,0,0,1-3.3,5.159l-1.089-.8c1.849-1.637,2.828-2.149,2.821-4.378Z" transform="translate(-1491.4 -687.3)" fill="#ff5c33"/>
          </g>
        </g>
        <path id="_Path_21" data-name="&lt;Path&gt;" d="M567.462,191.031a.731.731,0,1,1-.731-.731A.728.728,0,0,1,567.462,191.031Z" transform="translate(-533.121 -176.415)" fill="#ff5c33"/>
        <path id="_Path_22" data-name="&lt;Path&gt;" d="M1362.161,191.031a.731.731,0,1,1-.731-.731A.728.728,0,0,1,1362.161,191.031Z" transform="translate(-1269.744 -176.415)" fill="#ffb900"/>
        <path id="_Path_23" data-name="&lt;Path&gt;" d="M1623.462,495.731a.731.731,0,1,1-.731-.731A.733.733,0,0,1,1623.462,495.731Z" transform="translate(-1511.948 -458.847)" fill="#ff5c33"/>
        <path id="_Path_24" data-name="&lt;Path&gt;" d="M583.462,597.031a.731.731,0,1,1-.731-.731A.728.728,0,0,1,583.462,597.031Z" transform="translate(-547.952 -552.744)" fill="#14cca1"/>
        <path id="_Path_25" data-name="&lt;Path&gt;" d="M119.023,500.162l-1.462,1.462-1.462-1.462,1.462-1.462Z" transform="translate(-116.1 -462.277)" fill="#ffb900"/>
        <path id="_Path_26" data-name="&lt;Path&gt;" d="M1855.723,467.362l-1.462,1.462-1.462-1.462,1.462-1.462Z" transform="translate(-1725.881 -431.874)" fill="#14cca1"/>
      </g>
      <g id="_Group_31" data-name="&lt;Group&gt;" transform="translate(53.295 36.847)">
        <path id="_Path_27" data-name="&lt;Path&gt;" d="M1027.314,1138.614l-12.314.015v-2.872a1.837,1.837,0,0,1,1.834-1.842l8.638-.015a1.848,1.848,0,0,1,1.842,1.842Z" transform="translate(-994.118 -1087.903)" fill="#446e61"/>
        <path id="_Path_28" data-name="&lt;Path&gt;" d="M1052.666,977.6H1044.7V963.5h7.966Z" transform="translate(-1021.648 -929.956)" fill="#446e61"/>
        <path id="_Path_29" data-name="&lt;Path&gt;" d="M1044.7,969.595V963.5h7.966l-.007,2.96Z" transform="translate(-1021.648 -929.956)" fill="#446e61"/>
        <path id="_Path_30" data-name="&lt;Path&gt;" d="M1280.212,544.234l-.512-1.674c9.332-2.828,13.286-8.66,12.095-17.839a.272.272,0,0,0-.234-.037l-1.286.344a1.057,1.057,0,0,0-.855.957v1.988a2.269,2.269,0,0,1-2.324,2.2c-1.345.029-3.639.073-3.946.073v-1.754c.2,0,1.673-.029,3.917-.073.322-.007.6-.2.6-.446v-1.988a2.772,2.772,0,0,1,2.149-2.646l1.286-.351a2.009,2.009,0,0,1,1.644.263,1.781,1.781,0,0,1,.789,1.242c.621,4.823-.08,8.9-2.09,12.1C1289.266,540.069,1285.488,542.641,1280.212,544.234Z" transform="translate(-1239.474 -521.572)" fill="#446e61"/>
        <path id="_Path_31" data-name="&lt;Path&gt;" d="M742.807,547.234c-5.276-1.593-9.055-4.166-11.232-7.637-2.01-3.2-2.719-7.279-2.09-12.1a1.781,1.781,0,0,1,.789-1.242,2,2,0,0,1,1.644-.263l1.279.351a2.771,2.771,0,0,1,2.156,2.646v1.988c0,.241.278.438.6.446,2.244.044,3.705.073,3.917.073v1.754c-.307,0-2.609-.044-3.946-.073a2.269,2.269,0,0,1-2.324-2.2v-1.988a1.057,1.057,0,0,0-.855-.957l-1.286-.344a.219.219,0,0,0-.234.051c-1.191,9.164,2.762,15,12.095,17.824Z" transform="translate(-729.262 -524.353)" fill="#446e61"/>
        <path id="_Path_32" data-name="&lt;Path&gt;" d="M894.252,507.825l-1.907,23.8A10.182,10.182,0,0,1,882.193,541H871.239a10.185,10.185,0,0,1-10.151-9.369l-.987-12.351-.921-11.452a3.084,3.084,0,0,1,3.077-3.325h28.918a3.088,3.088,0,0,1,3.077,3.325Z" transform="translate(-849.677 -504.5)" fill="#446e61"/>
        <path id="_Path_33" data-name="&lt;Path&gt;" d="M900.46,726.1a10.14,10.14,0,0,1-6.468,2.317H883.037a10.185,10.185,0,0,1-10.151-9.369L871.9,706.7A60.429,60.429,0,0,0,900.46,726.1Z" transform="translate(-861.476 -691.923)" fill="#115e46"/>
        <path id="_Path_34" data-name="&lt;Path&gt;" d="M1035.715,1002.192H1024.3v-.292h11.415Z" transform="translate(-1002.739 -965.55)" fill="#001f40"/>
        <path id="_Path_35" data-name="&lt;Path&gt;" d="M1042.219,1132.392H1040.1v-.292h2.119Z" transform="translate(-1017.384 -1086.235)" fill="#001f40"/>
        <path id="_Path_36" data-name="&lt;Path&gt;" d="M1132.219,1132.392H1130.1v-.292h2.119Z" transform="translate(-1100.807 -1086.235)" fill="#001f40"/>
        <path id="_Path_37" data-name="&lt;Path&gt;" d="M993.751,1192.388l-18.044.022-.007-4.772a3.227,3.227,0,0,1,3.216-3.223l11.605-.015a3.217,3.217,0,0,1,3.223,3.216Z" transform="translate(-957.69 -1134.713)" fill="#446e61"/>
        <path id="_Path_38" data-name="&lt;Path&gt;" d="M1027.4,1183.292h-12.3V1183h12.3Z" transform="translate(-994.211 -1133.415)" fill="#e8950c"/>
        <path id="_Path_39" data-name="&lt;Path&gt;" d="M1208.816,605.142c0,1.732-.716,3.143-1.608,3.143s-1.608-1.41-1.608-3.143.724-3.142,1.608-3.142S1208.816,603.4,1208.816,605.142Z" transform="translate(-1170.789 -594.875)" fill="#fff" opacity="0.6"/>
      </g>
      <g id="_Group_32" data-name="&lt;Group&gt;" transform="translate(35.948 94.157)">
        <path id="_Path_40" data-name="&lt;Path&gt;" d="M582.43,1504.22H493.9v-7.52h88.53Z" transform="translate(-493.754 -1481.499)" fill="#fff"/>
        <path id="_Path_41" data-name="&lt;Path&gt;" d="M753.376,1401.227H694.1V1393.7h59.276Z" transform="translate(-679.323 -1386.026)" fill="#fff"/>
        <path id="_Path_42" data-name="&lt;Path&gt;" d="M873.169,1298.227H834.4V1290.7h38.769Z" transform="translate(-809.37 -1290.554)" fill="#fff"/>
        <path id="_Path_43" data-name="&lt;Path&gt;" d="M844.815,1496.7v7.52H801.2v-7.52Z" transform="translate(-778.596 -1481.499)" fill="#85c3b0"/>
        <path id="_Path_44" data-name="&lt;Path&gt;" d="M918.252,1393.7v7.527H887.2V1393.7Z" transform="translate(-858.311 -1386.026)" fill="#85c3b0"/>
        <path id="_Path_45" data-name="&lt;Path&gt;" d="M993.475,1290.7v7.527H975.3V1290.7Z" transform="translate(-939.973 -1290.554)" fill="#85c3b0"/>
        <path id="_Path_46" data-name="&lt;Path&gt;" d="M844.7,1369.6v1.754H834.4V1369.6Z" transform="translate(-809.37 -1363.688)" fill="#003e80" opacity="0.1"/>
        <path id="_Path_47" data-name="&lt;Path&gt;" d="M1234.3,1369.6v1.754H1224V1369.6Z" transform="translate(-1170.498 -1363.688)" fill="#003e80" opacity="0.1"/>
        <path id="_Path_48" data-name="&lt;Path&gt;" d="M993.475,1369.6v1.754H975.3V1369.6Z" transform="translate(-939.973 -1363.688)" fill="#4a191b" opacity="0.3"/>
        <path id="_Path_49" data-name="&lt;Path&gt;" d="M708.212,1472.5v1.754H694.1V1472.5Z" transform="translate(-679.323 -1459.068)" fill="#003e80" opacity="0.1"/>
        <path id="_Path_50" data-name="&lt;Path&gt;" d="M1326.212,1472.5v1.754H1312.1V1472.5Z" transform="translate(-1252.159 -1459.068)" fill="#003e80" opacity="0.1"/>
        <path id="_Path_51" data-name="&lt;Path&gt;" d="M918.252,1472.5v1.754H887.2V1472.5Z" transform="translate(-858.311 -1459.068)" fill="#4a191b" opacity="0.3"/>
        <path id="_Path_52" data-name="&lt;Path&gt;" d="M516.358,1575.6v1.754H493.9V1575.6Z" transform="translate(-493.754 -1554.633)" fill="#003e80" opacity="0.1"/>
        <path id="_Path_53" data-name="&lt;Path&gt;" d="M1420.465,1575.6v1.754H1398V1575.6Z" transform="translate(-1331.782 -1554.633)" fill="#003e80" opacity="0.1"/>
        <path id="_Path_54" data-name="&lt;Path&gt;" d="M844.815,1575.6v1.754H801.2V1575.6Z" transform="translate(-778.596 -1554.633)" fill="#4a191b" opacity="0.3"/>
        <path id="_Path_55" data-name="&lt;Path&gt;" d="M492.192,1311.421H491.9v-7.666l14.631-.015v-7.513l10.253-.007v-7.52h10.37v.292H517.076v7.52l-10.253.007v7.513l-14.631.015Z" transform="translate(-491.9 -1288.7)" fill="#95beff"/>
        <path id="_Path_56" data-name="&lt;Path&gt;" d="M1258.115,1311.421h-.292v-7.374l-14.623-.015v-7.513l-10.253-.007v-7.52H1222.7v-.292h10.538v7.52l10.253.007v7.513l14.623.015Z" transform="translate(-1169.293 -1288.7)" fill="#95beff"/>
      </g>
      <g id="_Group_33" data-name="&lt;Group&gt;" transform="translate(63.945 10.334)">
        <g id="_Group_34" data-name="&lt;Group&gt;" transform="translate(9.128 18.942)">
          <g id="_Group_35" data-name="&lt;Group&gt;" transform="translate(4.348 14.119)">
            <path id="_Path_57" data-name="&lt;Path&gt;" d="M1062.645,594.59l-.417,2.083,1.425,2.375-4.253-1.337,1.089-3.61Z" transform="translate(-1059.4 -594.1)" fill="#001f40"/>
            <path id="_Path_58" data-name="&lt;Path&gt;" d="M1085.632,628.187l-.132-.263.862-.424.124.263Z" transform="translate(-1083.593 -625.059)" fill="#fff"/>
          </g>
          <path id="_Path_59" data-name="&lt;Path&gt;" d="M1004.585,403.736l2.989.285a3.347,3.347,0,0,1,1.71.636,3.093,3.093,0,0,1,1.118,3.055c-.051.307-.117.585-.161.826l-2.455,8.682-3.713-1.98,1.659-6.468-3.771-.117-2.061-4.312.745-3.442Z" transform="translate(-999.9 -400.9)" fill="#007bff"/>
        </g>
        <g id="_Group_36" data-name="&lt;Group&gt;" transform="translate(6.743 18.942)">
          <g id="_Group_37" data-name="&lt;Group&gt;" transform="translate(5.622 18.007)">
            <path id="_Path_60" data-name="&lt;Path&gt;" d="M1047.489,647.68l-.307,2.273,1.688,2.456-4.67-1.155.928-3.954Z" transform="translate(-1044.2 -647.3)" fill="#001f40"/>
            <path id="_Path_61" data-name="&lt;Path&gt;" d="M1071.846,682.567l-.146-.248.9-.519.146.256Z" transform="translate(-1069.69 -679.279)" fill="#fff"/>
          </g>
          <path id="_Path_62" data-name="&lt;Path&gt;" d="M968.895,408.676a1.723,1.723,0,0,1-1.615-1.915l.438-4.107L970.4,400.9l.453,3.157,1.776.979a2.786,2.786,0,0,1,1.9,2.565l2.1,12.394-3.6.409-3.208-11.693Z" transform="translate(-967.27 -400.9)" fill="#007bff"/>
        </g>
        <path id="_Path_63" data-name="&lt;Path&gt;" d="M971.276,320.34l-5.335.607a1.081,1.081,0,0,1-1.206-.95l-.935-7.907L968.251,311l4.728.709-.87,7.8A.947.947,0,0,1,971.276,320.34Z" transform="translate(-957.31 -298.627)" fill="#fff"/>
        <g id="_Group_38" data-name="&lt;Group&gt;" transform="translate(0 1.22)">
          <path id="_Path_64" data-name="&lt;Path&gt;" d="M878.032,161.724l-2.419.921a21.544,21.544,0,0,1-.614-2.857c-.007-.921.5-.68.5-.68.132-.5.636-.263.636-.263s-.08-.424.19-.446.979,1.681.979,1.681.329-.782.65-.855-.1,1.966-.1,1.966Z" transform="translate(-874.999 -158.399)" fill="#ffba9a"/>
          <path id="_Path_65" data-name="&lt;Path&gt;" d="M892.235,213.43l-2.1,2.974-4.853-5.781a2.993,2.993,0,0,1-.65-1.184c-.278-1-.811-2.952-1.235-4.619l2.419-.921,1.688,4.684Z" transform="translate(-882.786 -200.575)" fill="#003e80"/>
          <g id="_Group_39" data-name="&lt;Group&gt;" transform="translate(0.154 0.431)">
            <path id="_Path_66" data-name="&lt;Path&gt;" d="M899.988,183.9a.514.514,0,0,1,.058-.8l.051.051a.452.452,0,0,0-.058.709Z" transform="translate(-898.161 -181.726)" fill="#974245"/>
            <path id="_Path_67" data-name="&lt;Path&gt;" d="M889.451,165.316l-.351-.994.073-.022.343.994Z" transform="translate(-888.223 -164.3)" fill="#974245"/>
            <path id="_Path_68" data-name="&lt;Path&gt;" d="M882.907,168.428l-.307-.906.073-.022.3.906Z" transform="translate(-882.198 -167.266)" fill="#974245"/>
            <path id="_Path_69" data-name="&lt;Path&gt;" d="M877.48,170.174l-.38-1.052.066-.022.387,1.045Z" transform="translate(-877.1 -168.749)" fill="#974245"/>
          </g>
        </g>
        <g id="_Group_40" data-name="&lt;Group&gt;" transform="translate(13.198)">
          <path id="_Path_70" data-name="&lt;Path&gt;" d="M1131.426,145.9l-2.455-.862.153-.628s-.541-2.01-.219-1.959.709.819.709.819.563-1.571.833-1.571a.237.237,0,0,1,.249.263s.395-.263.519.139c0,0,.621-.19.68.731A23.88,23.88,0,0,1,1131.426,145.9Z" transform="translate(-1123.453 -141.7)" fill="#ffba9a"/>
          <path id="_Path_71" data-name="&lt;Path&gt;" d="M1063.573,188.262c-.314,1.652-.7,3.522-.906,4.5a2.928,2.928,0,0,1-.577,1.228l-4.151,6.095-2.339-2.434,4.093-5.459,1.425-4.794Z" transform="translate(-1055.6 -184.06)" fill="#003e80"/>
          <g id="_Group_41" data-name="&lt;Group&gt;" transform="translate(6.373 0.219)">
            <path id="_Path_72" data-name="&lt;Path&gt;" d="M1142.99,165.6l-.058-.037a.455.455,0,0,0-.132-.7l.044-.058A.514.514,0,0,1,1142.99,165.6Z" transform="translate(-1142.8 -163.331)" fill="#974245"/>
            <path id="_Path_73" data-name="&lt;Path&gt;" d="M1150.973,145.745l-.073-.015.241-1.03.066.015Z" transform="translate(-1150.308 -144.7)" fill="#974245"/>
            <path id="_Path_74" data-name="&lt;Path&gt;" d="M1158.266,148.157l-.066-.015.2-.943.073.015Z" transform="translate(-1157.074 -147.017)" fill="#974245"/>
            <path id="_Path_75" data-name="&lt;Path&gt;" d="M1163.073,149.3l-.073-.022.27-1.082.066.015Z" transform="translate(-1161.524 -147.944)" fill="#974245"/>
          </g>
        </g>
        <g id="_Group_42" data-name="&lt;Group&gt;" transform="translate(9.073 7.545)">
          <path id="_Path_76" data-name="&lt;Path&gt;" d="M1012.128,296.372a.929.929,0,0,1-.928-.928V293.8h1.849v1.644A.923.923,0,0,1,1012.128,296.372Z" transform="translate(-1010.319 -290.23)" fill="#ffba9a"/>
          <path id="_Path_77" data-name="&lt;Path&gt;" d="M1012.934,297a.927.927,0,0,1-1.834,0Z" transform="translate(-1010.226 -293.196)" fill="#001f40"/>
          <path id="_Path_78" data-name="&lt;Path&gt;" d="M1007.933,260.593a1.383,1.383,0,1,1-1.367-1.593A1.492,1.492,0,0,1,1007.933,260.593Z" transform="translate(-1004.757 -257.973)" fill="#ffba9a"/>
          <path id="_Path_79" data-name="&lt;Path&gt;" d="M1000.8,247.363c-.307-1.8.329-2.828,2.887-2.258l-.307.153c.621.241.8,1.286.6,2.361l-.322.022a1.951,1.951,0,0,0-.738-1.418l-.943.015a1.48,1.48,0,0,0-.811,1.359Z" transform="translate(-1000.61 -244.947)" fill="#001f40"/>
          <g id="_Group_43" data-name="&lt;Group&gt;" transform="translate(0 2.289)">
            <path id="_Path_80" data-name="&lt;Path&gt;" d="M999.87,276.528a.408.408,0,0,1-.153.548.434.434,0,0,1-.373-.775A.41.41,0,0,1,999.87,276.528Z" transform="translate(-999.143 -276.27)" fill="#ffba9a"/>
            <path id="_Path_81" data-name="&lt;Path&gt;" d="M1002.148,279.514a.384.384,0,0,0-.248-.248l.022-.066a.449.449,0,0,1,.292.292Z" transform="translate(-1001.698 -278.986)" fill="#001f40"/>
          </g>
          <g id="_Group_44" data-name="&lt;Group&gt;" transform="translate(2.887 2.289)">
            <path id="_Path_82" data-name="&lt;Path&gt;" d="M1039.21,276.3a.432.432,0,1,1-.519.227A.4.4,0,0,1,1039.21,276.3Z" transform="translate(-1038.643 -276.27)" fill="#ffba9a"/>
            <path id="_Path_83" data-name="&lt;Path&gt;" d="M1042.258,279.514l-.058-.022a.454.454,0,0,1,.285-.292l.022.066A.383.383,0,0,0,1042.258,279.514Z" transform="translate(-1041.94 -278.986)" fill="#001f40"/>
          </g>
        </g>
        <path id="_Path_84" data-name="&lt;Path&gt;" d="M956.212,314.3c.95,3.208.628,8.1-.453,11.759l-3.859.6.87-11.51Z" transform="translate(-946.28 -301.686)" fill="#003e80"/>
        <path id="_Path_85" data-name="&lt;Path&gt;" d="M1040.273,313.377l.8,9.873-2.331,1.191c-1.367-2.572-2.054-7.929-2.346-11.642Z" transform="translate(-1024.605 -300.296)" fill="#003e80"/>
        <path id="_Path_86" data-name="&lt;Path&gt;" d="M1034.521,466.079c-.022-.124-2.032-12.446-2.353-13.491-.314-1.016-2.353-1.849-2.368-1.856l.051-.132c.088.029,2.119.862,2.455,1.944.329,1.052,2.28,13,2.361,13.513Z" transform="translate(-1018.487 -428.025)" fill="#001f40"/>
        <path id="_Path_87" data-name="&lt;Path&gt;" d="M999.162,500.859l-1.462-5.116.139-.044,1.462,5.116Z" transform="translate(-988.733 -469.829)" fill="#001f40"/>
        <path id="_Path_88" data-name="&lt;Path&gt;" d="M1080.674,507.848l-1.074-.1.015-.146,1.074.1Z" transform="translate(-1064.648 -480.86)" fill="#001f40"/>
      </g>
      <g id="_Group_45" data-name="&lt;Group&gt;" transform="translate(26.636 54.957)">
        <g id="_Group_46" data-name="&lt;Group&gt;" transform="translate(0 14.468)">
          <g id="_Group_47" data-name="&lt;Group&gt;" transform="translate(3.173 18.937)">
            <g id="_Group_48" data-name="&lt;Group&gt;" transform="translate(0 0)">
              <g id="_Group_49" data-name="&lt;Group&gt;">
                <g id="_Group_50" data-name="&lt;Group&gt;" transform="translate(0.146 25.037)">
                  <path id="_Path_89" data-name="&lt;Path&gt;" d="M412.867,1552l-.139,1.717,1.82,1.82H409.9l.548-3.457Z" transform="translate(-409.9 -1552)" fill="#001f40"/>
                  <path id="_Path_90" data-name="&lt;Path&gt;" d="M435.053,1574.5l-.153-.249.928-.548.146.256Z" transform="translate(-433.073 -1572.114)" fill="#fff"/>
                </g>
                <path id="_Path_91" data-name="&lt;Path&gt;" d="M418.19,1209.4c-.066.409-.132.818-.2,1.22q-.2,1.147-.4,2.266-.734,4.034-1.6,7.812h0c-1.162,5.086-2.485,9.844-3.946,14.339H407.9c1.666-7.944,3.274-15.8,3.793-21.88.08-.892.132-1.754.161-2.565Z" transform="translate(-407.9 -1209.4)" fill="#14cca1"/>
              </g>
              <g id="_Group_51" data-name="&lt;Group&gt;" transform="translate(6.526 1.191)">
                <g id="_Group_52" data-name="&lt;Group&gt;" transform="translate(3.398 23.766)">
                  <path id="_Path_92" data-name="&lt;Path&gt;" d="M546.835,1550.98l-.146,1.717,1.966,1.82-4.955-.066.2-3.552Z" transform="translate(-543.7 -1550.9)" fill="#001f40"/>
                  <path id="_Path_93" data-name="&lt;Path&gt;" d="M570.139,1574.5l-.139-.256.994-.541.139.256Z" transform="translate(-568.078 -1572.034)" fill="#fff"/>
                </g>
                <path id="_Path_94" data-name="&lt;Path&gt;" d="M504.274,1250.05h-4.319c-.307-4.911-.672-9.705-1.2-14.244h0c-.314-2.667-.672-5.24-1.111-7.688q-.212-1.184-.446-2.331l3.559-.058,1.769-.029c.117.723.227,1.454.329,2.185a184.178,184.178,0,0,1,1.418,22.165Z" transform="translate(-497.2 -1225.7)" fill="#14cca1"/>
              </g>
            </g>
            <path id="_Path_95" data-name="&lt;Path&gt;" d="M468.19,1212.776l-2.5.11-2.711.124-3.179.146c.08-.892.132-1.754.161-2.565l6.336-1.191c-.066.409-.132.818-.2,1.22l1.769-.029C467.978,1211.315,468.087,1212.045,468.19,1212.776Z" transform="translate(-456.007 -1209.4)" fill="#4a191b" opacity="0.3"/>
            <path id="_Path_96" data-name="&lt;Path&gt;" d="M512.846,1296.815l-.146-.029,1.469-7.286.146.029Z" transform="translate(-505.041 -1283.646)" fill="#001f40"/>
          </g>
          <g id="_Group_53" data-name="&lt;Group&gt;">
            <path id="_Path_97" data-name="&lt;Path&gt;" d="M445.512,1078.384l.775,2.638-3.347.789-.322,6.592a.971.971,0,0,1-.965.921h-7.469a.886.886,0,0,1-.409-.095.906.906,0,0,1-.5-.87l.395-6.226-1.966-1.761,1.688-2.872a8.65,8.65,0,0,0,5.722.994A21.4,21.4,0,0,0,445.512,1078.384Z" transform="translate(-426.788 -1068.202)" fill="#007bff"/>
            <g id="_Group_54" data-name="&lt;Group&gt;">
              <path id="_Path_98" data-name="&lt;Path&gt;" d="M371.081,959.572l-1.688,2.872-2.346-2.1q-.08-.066-.153-.139a3.435,3.435,0,0,1-.914-1.674c-.015-.08-.037-.168-.051-.256-.519-2.287-1.491-6.745-1.447-7.133.073-.534.614-.3.614-.3.044-.5.46-.234.46-.234,0-.285.1-.351.38-.336s.665,1.739.665,1.739.424-.9.738-.826-.27,1.79-.27,1.79l2.039,5.006A10.666,10.666,0,0,0,371.081,959.572Z" transform="translate(-364.48 -950.274)" fill="#ffba9a"/>
              <path id="_Path_99" data-name="&lt;Path&gt;" d="M385.586,1060.747a1.166,1.166,0,0,1-.322.8,3.435,3.435,0,0,1-.913-1.674c-.015-.08-.037-.168-.051-.256a.742.742,0,0,1,.146-.015A1.143,1.143,0,0,1,385.586,1060.747Z" transform="translate(-382.852 -1051.61)" fill="#ff5c33" opacity="0.2"/>
              <g id="_Group_55" data-name="&lt;Group&gt;" transform="translate(0.265 0.331)">
                <path id="_Path_100" data-name="&lt;Path&gt;" d="M386.124,977.511a.52.52,0,0,1,.015-.811l.051.051a.45.45,0,0,0-.007.709Z" transform="translate(-384.633 -975.1)" fill="#974245"/>
                <path id="_Path_101" data-name="&lt;Path&gt;" d="M378.853,955.538l-.153-.716.073-.022.153.724Z" transform="translate(-377.925 -954.8)" fill="#974245"/>
                <path id="_Path_102" data-name="&lt;Path&gt;" d="M372.575,958.614l-.175-.592.073-.022.175.592Z" transform="translate(-372.086 -957.766)" fill="#974245"/>
                <path id="_Path_103" data-name="&lt;Path&gt;" d="M368.253,961.37l-.153-.555.073-.015.153.555Z" transform="translate(-368.1 -960.362)" fill="#974245"/>
              </g>
            </g>
            <g id="_Group_56" data-name="&lt;Group&gt;" transform="translate(18.725 3.524)">
              <path id="_Path_104" data-name="&lt;Path&gt;" d="M624.917,1005.947a1.2,1.2,0,0,1-.1.161l-.219.329a2.238,2.238,0,0,1-1.257.914.576.576,0,0,1-.088.022l-1.776.424-.775-2.638c.716-.08,1.447-.175,2.185-.27l2.2-4.158s0-1.769.248-1.82.438,1.03.438,1.03.943-1.44,1.25-1.44.212.409.212.409.278-.344.446-.183c.088.088.073.395.073.395a.3.3,0,0,1,.322-.015C628.5,999.282,627.168,1002.344,624.917,1005.947Z" transform="translate(-620.7 -998.5)" fill="#ffba9a"/>
              <path id="_Path_105" data-name="&lt;Path&gt;" d="M657.452,1098.824a1.2,1.2,0,0,1-.1.161l-.219.329a2.238,2.238,0,0,1-1.257.914,1.015,1.015,0,0,1-.073-.38,1.143,1.143,0,0,1,1.14-1.147A1.1,1.1,0,0,1,657.452,1098.824Z" transform="translate(-653.235 -1091.377)" fill="#ff5c33" opacity="0.2"/>
              <g id="_Group_57" data-name="&lt;Group&gt;" transform="translate(5.218 0.307)">
                <path id="_Path_106" data-name="&lt;Path&gt;" d="M692.144,1022.082l-.044-.066a.444.444,0,0,0,.19-.68l.066-.037A.523.523,0,0,1,692.144,1022.082Z" transform="translate(-692.1 -1019.941)" fill="#974245"/>
                <path id="_Path_107" data-name="&lt;Path&gt;" d="M705.366,1003.38l-.066-.029.351-.65.066.037Z" transform="translate(-704.335 -1002.7)" fill="#974245"/>
                <path id="_Path_108" data-name="&lt;Path&gt;" d="M712.166,1006.358l-.066-.037.322-.621.066.029Z" transform="translate(-710.638 -1005.481)" fill="#974245"/>
                <path id="_Path_109" data-name="&lt;Path&gt;" d="M716.558,1008.934l-.058-.044.3-.49.066.037Z" transform="translate(-714.717 -1007.983)" fill="#974245"/>
              </g>
            </g>
            <path id="_Path_110" data-name="&lt;Path&gt;" d="M434.018,1118.846,431,1116.317l.1-.117,3.018,2.536Z" transform="translate(-426.139 -1104.074)" fill="#001f40"/>
            <path id="_Path_111" data-name="&lt;Path&gt;" d="M583.146,1118.517l-.146-.007.219-4.209.146.007Z" transform="translate(-567.03 -1102.313)" fill="#001f40"/>
            <path id="_Path_112" data-name="&lt;Path&gt;" d="M516.23,1118.3a1.906,1.906,0,0,1-1.33-.592l.11-.1a1.689,1.689,0,0,0,1.381.533,1.3,1.3,0,0,0,.987-.643l.124.073a1.453,1.453,0,0,1-1.1.716A1.076,1.076,0,0,1,516.23,1118.3Z" transform="translate(-503.907 -1105.279)" fill="#001f40"/>
          </g>
          <g id="_Group_58" data-name="&lt;Group&gt;" transform="translate(10.197 5.059)">
            <path id="_Path_113" data-name="&lt;Path&gt;" d="M515.054,1065.583a1.058,1.058,0,0,1-1.169-.935l-.285-2.507,2.112-.241.285,2.507A1.072,1.072,0,0,1,515.054,1065.583Z" transform="translate(-512.9 -1058.801)" fill="#ffba9a"/>
            <path id="_Path_114" data-name="&lt;Path&gt;" d="M524.82,1074.9l.153,1.352a3.388,3.388,0,0,1-1.674-1.118Z" transform="translate(-521.891 -1070.851)" fill="#001f40"/>
            <path id="_Path_115" data-name="&lt;Path&gt;" d="M516.1,1035.531s.409,2.66-.519,3a2.933,2.933,0,0,1-2.01-.285l-.767-2.236.994-.906Z" transform="translate(-512.158 -1033.96)" fill="#ffba9a"/>
            <path id="_Path_116" data-name="&lt;Path&gt;" d="M504.418,1022.365a1.256,1.256,0,0,1,.453-2.119c.848-1.418,2.192-.438,2.711-.1a2.2,2.2,0,0,0,1.389.153,2.326,2.326,0,0,1-3.142.833,1.494,1.494,0,0,0-.767,1.235Z" transform="translate(-504.017 -1019.5)" fill="#001f40"/>
            <g id="_Group_59" data-name="&lt;Group&gt;" transform="translate(0.239 2.459)">
              <path id="_Path_117" data-name="&lt;Path&gt;" d="M508.337,1053.484a.554.554,0,1,1-.789-.278A.6.6,0,0,1,508.337,1053.484Z" transform="translate(-507.292 -1053.144)" fill="#ffba9a"/>
              <path id="_Path_118" data-name="&lt;Path&gt;" d="M512.5,1057.321a.536.536,0,0,0-.3-.49l.066-.131a.675.675,0,0,1,.38.614Z" transform="translate(-511.841 -1056.44)" fill="#001f40"/>
            </g>
          </g>
        </g>
        <g id="_Group_60" data-name="&lt;Group&gt;" transform="translate(4.861)">
          <g id="_Group_61" data-name="&lt;Group&gt;">
            <path id="_Path_119" data-name="&lt;Path&gt;" d="M438.065,754.3a5.07,5.07,0,0,1,2.324,9.574l.5,2.609-1.805-2.149a5.226,5.226,0,0,1-1.023.1,5.068,5.068,0,0,1,0-10.136Z" transform="translate(-432.854 -754.154)" fill="#fff"/>
            <path id="_Compound_Path_" data-name="&lt;Compound Path&gt;" d="M439.287,765.155l-2.112-2.514a5.322,5.322,0,0,1-.965.088,5.224,5.224,0,1,1,2.485-.636Zm-2-2.836,1.5,1.783-.417-2.163.1-.051a4.914,4.914,0,1,0-2.251.548,5.037,5.037,0,0,0,.994-.095Z" transform="translate(-431 -752.3)" fill="#95beff" fill-rule="evenodd"/>
          </g>
          <g id="_Group_62" data-name="&lt;Group&gt;" transform="translate(2.141 4.626)">
            <path id="_Path_120" data-name="&lt;Path&gt;" d="M461.718,816.309a.709.709,0,1,1-.709-.709A.7.7,0,0,1,461.718,816.309Z" transform="translate(-460.3 -815.6)" fill="#95beff"/>
            <path id="_Path_121" data-name="&lt;Path&gt;" d="M494.018,816.309a.709.709,0,0,1-1.418,0,.709.709,0,0,1,1.418,0Z" transform="translate(-490.239 -815.6)" fill="#95beff"/>
            <path id="_Path_122" data-name="&lt;Path&gt;" d="M526.318,816.309a.709.709,0,0,1-1.418,0,.709.709,0,0,1,1.418,0Z" transform="translate(-520.179 -815.6)" fill="#95beff"/>
          </g>
        </g>
      </g>
      <g id="_Group_63" data-name="&lt;Group&gt;" transform="translate(106.74 50.426)">
        <g id="_Group_64" data-name="&lt;Group&gt;" transform="translate(0 16.894)">
          <g id="_Group_65" data-name="&lt;Group&gt;" transform="translate(0 7.698)">
            <path id="_Path_123" data-name="&lt;Path&gt;" d="M1504.665,1031.93l-2.266,2.492a4.043,4.043,0,0,1-1.345.972c-.417.183-.957.424-1.52.665l-1.235-1.593,2.156-1.527,3.047-6.139Z" transform="translate(-1495.543 -1026.8)" fill="#ff5c33"/>
            <path id="_Path_124" data-name="&lt;Path&gt;" d="M1463.335,1131.7l1.235,1.593a24.1,24.1,0,0,1-3.106,1.228c-.249-.007.468-.782.468-.782s-1.293-.344-1.352-.913c-.066-.6,1.944-.548,1.944-.548Z" transform="translate(-1460.578 -1124.034)" fill="#ffba9a"/>
          </g>
          <g id="_Group_66" data-name="&lt;Group&gt;" transform="translate(9.356 37.727)">
            <path id="_Path_125" data-name="&lt;Path&gt;" d="M1593.431,1437.9l-.051,4.034h-4.78l2.214-1.966.249-2.266Z" transform="translate(-1588.6 -1437.7)" fill="#001f40"/>
            <path id="_Path_126" data-name="&lt;Path&gt;" d="M1618.338,1468.121l-.738-.709.2-.212.745.709Z" transform="translate(-1615.481 -1465.044)" fill="#fff"/>
          </g>
          <g id="_Group_67" data-name="&lt;Group&gt;" transform="translate(16.028 20.465)">
            <path id="_Path_127" data-name="&lt;Path&gt;" d="M1679.9,1203.013l3.742-1.513,1.842,4.407-2.667-1.286-2.185.65Z" transform="translate(-1679.9 -1201.5)" fill="#001f40"/>
            <path id="_Path_128" data-name="&lt;Path&gt;" d="M1718.17,1231.46l-.27-.1.365-.957.278.1Z" transform="translate(-1715.123 -1228.288)" fill="#fff"/>
          </g>
          <path id="_Path_129" data-name="&lt;Path&gt;" d="M1560.05,1119.3l2.543,23.824-4.144.146-3.749-21.325Z" transform="translate(-1547.822 -1104.842)" fill="#007bff"/>
          <path id="_Path_130" data-name="&lt;Path&gt;" d="M1594.682,1134.1l.015,6.877,2.828-1.052.226,4.421-4.977,2.85a1.747,1.747,0,0,1-2.609-1.454l-.365-11.159Z" transform="translate(-1580.356 -1118.56)" fill="#007bff"/>
          <g id="_Group_68" data-name="&lt;Group&gt;" transform="translate(6.878 1.6)">
            <path id="_Path_131" data-name="&lt;Path&gt;" d="M1570.5,983l2.441.862c-1.023,2.024-2.624,4.641-3.6,6.212a1.78,1.78,0,0,1-2.3.643l-4.3-2.017-.592,5.342-7.447,1.564.453-7.717a3.175,3.175,0,0,1,2.214-2.836l2.134-.665,2.572.3a3.686,3.686,0,0,1,1.374.46l3.99,2.339Z" transform="translate(-1554.7 -980.103)" fill="#ff5c33"/>
            <path id="_Path_132" data-name="&lt;Path&gt;" d="M1774.313,944.515a7.428,7.428,0,0,1-.972,2.6l-2.441-.862.358-.526s.161-1.864.424-1.878.38.906.38.906,1.016-1.476,1.279-1.4.08.526.08.526.183-.183.344-.08.036.424.036.424S1774.269,944.025,1774.313,944.515Z" transform="translate(-1755.1 -943.357)" fill="#ffba9a"/>
            <g id="_Group_69" data-name="&lt;Group&gt;" transform="translate(17.035 0.383)">
              <path id="_Path_133" data-name="&lt;Path&gt;" d="M1787.844,965.3l-.044-.058a.459.459,0,0,0,.1-.709l.058-.036A.522.522,0,0,1,1787.844,965.3Z" transform="translate(-1787.8 -963.338)" fill="#974245"/>
              <path id="_Path_134" data-name="&lt;Path&gt;" d="M1800.358,949.243l-.058-.044.417-.6.058.044Z" transform="translate(-1799.386 -948.6)" fill="#974245"/>
              <path id="_Path_135" data-name="&lt;Path&gt;" d="M1805.251,954.519l-.051-.044.395-.475.058.044Z" transform="translate(-1803.928 -953.605)" fill="#974245"/>
              <path id="_Path_136" data-name="&lt;Path&gt;" d="M1808.558,958.7l-.058-.044.358-.453.058.044Z" transform="translate(-1806.987 -957.498)" fill="#974245"/>
            </g>
          </g>
          <g id="_Group_70" data-name="&lt;Group&gt;" transform="translate(9.631)">
            <path id="_Path_137" data-name="&lt;Path&gt;" d="M1596.407,938.715a1.886,1.886,0,0,1-1.915,1.776,2.4,2.4,0,0,1-2.127-2.112c.066-.95,1.133-1.44,2.171-1.4C1595.991,937.02,1596.473,937.765,1596.407,938.715Z" transform="translate(-1592.363 -935.84)" fill="#e8950c"/>
            <path id="_Path_138" data-name="&lt;Path&gt;" d="M1607.485,978.474a.982.982,0,0,1-.914-1.045l.154-2.229,1.958.132-.146,2.229A.988.988,0,0,1,1607.485,978.474Z" transform="translate(-1605.531 -971.273)" fill="#ffba9a"/>
            <path id="_Path_139" data-name="&lt;Path&gt;" d="M1608.1,991.261a2.607,2.607,0,0,1-1.5.906l.08-1.067Z" transform="translate(-1605.56 -986.011)" fill="#001f40"/>
            <path id="_Path_140" data-name="&lt;Path&gt;" d="M1599.432,948.8l.234,1.242-.2,1.915a3.058,3.058,0,0,1-1.937.27c-.862-.27-.482-2.8-.482-2.8Z" transform="translate(-1596.623 -946.802)" fill="#ffba9a"/>
            <path id="_Path_141" data-name="&lt;Path&gt;" d="M1598.377,948.4a2.317,2.317,0,0,1-.541-1.177,3.883,3.883,0,0,1-2.236.132l.256-.8,1.893-.358.972.278Z" transform="translate(-1595.363 -944.392)" fill="#e8950c"/>
            <g id="_Group_71" data-name="&lt;Group&gt;" transform="translate(2.754 3.522)">
              <path id="_Path_142" data-name="&lt;Path&gt;" d="M1630.873,970.431a.477.477,0,0,1-.672.124.482.482,0,0,1-.029-.687.476.476,0,0,1,.672-.124A.482.482,0,0,1,1630.873,970.431Z" transform="translate(-1630.043 -969.653)" fill="#ffba9a"/>
              <path id="_Path_143" data-name="&lt;Path&gt;" d="M1633.139,973.575l-.139-.007c.022-.38.256-.468.446-.468l.007.146C1633.256,973.246,1633.161,973.348,1633.139,973.575Z" transform="translate(-1632.784 -972.848)" fill="#001f40"/>
            </g>
            <path id="_Path_144" data-name="&lt;Path&gt;" d="M1631.508,922.767a1.223,1.223,0,1,1-1.14-1.3A1.219,1.219,0,0,1,1631.508,922.767Z" transform="translate(-1626.382 -921.464)" fill="#e8950c"/>
          </g>
          <path id="_Path_145" data-name="&lt;Path&gt;" d="M1553.946,1048.782l-.146-.015.548-8.368.146.015Z" transform="translate(-1546.987 -1031.708)" fill="#001f40"/>
          <path id="_Path_146" data-name="&lt;Path&gt;" d="M1651.079,1052.339l-3.179-1.608.066-.131,3.179,1.608Z" transform="translate(-1634.21 -1041.163)" fill="#001f40"/>
          <path id="_Path_147" data-name="&lt;Path&gt;" d="M1603.73,1022.335a1.07,1.07,0,0,1-.175-.015,1.119,1.119,0,0,1-.855-.884l.139-.037a.969.969,0,0,0,.745.775,1.3,1.3,0,0,0,1.22-.65l.124.08A1.558,1.558,0,0,1,1603.73,1022.335Z" transform="translate(-1592.314 -1014.097)" fill="#001f40"/>
          <path id="_Path_148" data-name="&lt;Path&gt;" d="M1591.4,1176.679a1.845,1.845,0,0,1-.577-.088,1.717,1.717,0,0,1-1.074-1.074c-.292-1.074-.438-9.552-.446-9.91l.146-.007c.007.095.153,8.828.438,9.873a1.59,1.59,0,0,0,.979.979,3.026,3.026,0,0,0,2.66-.819l.088.117a3.751,3.751,0,0,1-2.214.928Z" transform="translate(-1579.893 -1147.758)" fill="#001f40"/>
          <path id="_Path_149" data-name="&lt;Path&gt;" d="M1626.051,1214.873l-.051-.132,5.057-1.842.051.131Z" transform="translate(-1613.911 -1191.602)" fill="#001f40"/>
        </g>
        <g id="_Group_72" data-name="&lt;Group&gt;" transform="translate(11.19)">
          <g id="_Group_73" data-name="&lt;Group&gt;">
            <path id="_Path_150" data-name="&lt;Path&gt;" d="M1625.829,697.372a5.062,5.062,0,0,1-5.064,5.064,5.226,5.226,0,0,1-1.023-.1l-1.805,2.149.512-2.609a5.067,5.067,0,1,1,7.381-4.5Z" transform="translate(-1615.554 -692.154)" fill="#fff"/>
            <path id="_Compound_Path_2" data-name="&lt;Compound Path&gt;" d="M1615.834,703.155l.592-3.062a5.2,5.2,0,1,1,2.485.636,5.321,5.321,0,0,1-.965-.088Zm3.077-12.563a4.921,4.921,0,0,0-2.251,9.3l.1.051-.417,2.163,1.5-1.783.08.015a5.039,5.039,0,0,0,.994.1,4.922,4.922,0,0,0,0-9.844Z" transform="translate(-1613.7 -690.3)" fill="#95beff" fill-rule="evenodd"/>
          </g>
          <g id="_Group_74" data-name="&lt;Group&gt;" transform="translate(2.141 4.487)">
            <path id="_Path_151" data-name="&lt;Path&gt;" d="M1644.418,752.409a.709.709,0,1,1-1.418,0,.709.709,0,0,1,1.418,0Z" transform="translate(-1643 -751.7)" fill="#95beff"/>
            <path id="_Path_152" data-name="&lt;Path&gt;" d="M1676.718,752.409a.709.709,0,1,1-.709-.709A.71.71,0,0,1,1676.718,752.409Z" transform="translate(-1672.94 -751.7)" fill="#95beff"/>
            <path id="_Path_153" data-name="&lt;Path&gt;" d="M1709.018,752.409a.709.709,0,1,1-.709-.709A.71.71,0,0,1,1709.018,752.409Z" transform="translate(-1702.879 -751.7)" fill="#95beff"/>
          </g>
        </g>
      </g>
      <path id="_Path_154" data-name="&lt;Path&gt;" d="M156.685,1597.292H0V1597H156.685Z" transform="translate(0 -1480.312)" fill="#001f40"/>
    </g>
  </g>
</svg>
